<?xml version="1.0" encoding="utf-8"?>
<!-- Generator: Adobe Illustrator 21.1.0, SVG Export Plug-In . SVG Version: 6.00 Build 0)  -->
<svg version="1.1" id="图层_1" xmlns="http://www.w3.org/2000/svg" xmlns:xlink="http://www.w3.org/1999/xlink" x="0px" y="0px"
	 width="500px" height="40.175px" viewBox="0 0 500 40.2" style="enable-background:new 0 0 500 40.2;" xml:space="preserve">
<style type="text/css">
	.st0{fill:#5C5C5C;}
	.st1{fill:#C1292E;}
	.st2{fill:#231815;}
	.st3{fill:#FF3333;}
	.st4{fill:url(#SVGID_1_);}
	.st5{fill:#E51419;}
	.st6{fill:#63ACE6;}
	.st7{fill:#FFFFFF;}
	.st8{fill:#3E3A39;}
	.st9{fill:#E10000;}
	.st10{opacity:0.8;fill:#FFEBEB;enable-background:new    ;}
	.st11{opacity:0.8;fill:#FFE9E9;enable-background:new    ;}
</style>
<g>
	<polygon class="st0" points="0.1,25.2 120.9,25.2 120.9,26.9 0.1,26.9 	"/>
	<path class="st1" d="M20.2,9.2c0.1-0.1,0.2-0.2,0.3-0.3c0-0.1,0-0.2,0-0.3c0-0.4,0-0.7,0.1-0.9c0-0.3,0.1-0.7,0-1.3
		c0-0.5-0.3-0.9-0.6-1.3c-0.9-0.8-1.7-1.1-2.3-0.9c-0.3,0.1-0.8,0.1-1.3,0C15.7,4,15,4.1,14.3,4.4c-0.3,0.1-0.5,0.2-0.7,0.2
		c-0.1,0-0.3,0-0.4,0c-0.1,0-0.1,0-0.1,0c-0.6,0.2-0.9,0.4-1.2,0.6c0,0,0,0.1-0.1,0.2c-0.3,0.6-0.4,0.9-0.4,1.2
		c0.1,0.5,0.1,0.9,0.1,1.1c0,0.5,0.1,0.9,0.2,1.2c0,0,0,0,0,0l0.1,0c0.3,0.2,0.6,0.4,0.8,0.6c0,0,0.1,0.1,0.1,0.1
		c0.2-0.1,0.4-0.1,0.6-0.1c0.2,0,0.5,0,0.7,0c0.2-0.1,0.4-0.1,0.6,0c0.3,0,0.5,0,0.6-0.1c0.2-0.1,0.5-0.1,0.9-0.1h0
		c0.2-0.1,0.3-0.2,0.3-0.2c0.1-0.1,0.1-0.1,0.2-0.2c0-0.1,0.1-0.2,0.1-0.3c0.1-0.1,0.1-0.3,0.2-0.5c0-0.2,0-0.4-0.1-0.6
		c0-0.2,0-0.4,0-0.5c0.1-0.3,0.2-0.5,0.2-0.7c0-0.4,0.1-0.7,0.4-0.9c0.3-0.3,0.6-0.4,0.8-0.3c0.2,0,0.3,0.2,0.4,0.4
		c0.1,0.3,0.2,0.6,0.2,0.9c0,0.3-0.1,0.5-0.2,0.7c-0.1,0.2-0.2,0.4-0.4,0.6c-0.2,0.2-0.3,0.5-0.3,0.9c0,0.1,0,0.2-0.1,0.3
		c0.1,0.1,0.1,0.1,0.1,0.2c0,0,0,0,0.1,0.1c0.2,0,0.5,0,0.8,0.1c0.3,0,0.6,0,0.8,0c0,0,0.1,0,0.1,0C20.1,9.3,20.2,9.2,20.2,9.2
		C20.2,9.2,20.2,9.2,20.2,9.2L20.2,9.2z M15.1,12.7c0,0,0-0.1,0-0.1c0-0.2,0-0.3,0-0.5c0-0.1,0-0.2,0-0.3c0-0.1,0-0.2,0-0.3
		c-0.1-0.1-0.1-0.1-0.2-0.1c-0.2-0.1-0.4-0.2-0.6-0.2h0c-0.3,0.1-0.5,0.2-0.7,0.2c-0.2,0-0.4,0.1-0.5,0.1c-0.1,0-0.1,0.1-0.2,0.1
		c-0.2,0.1-0.3,0.2-0.4,0.3c-0.1,0.1-0.1,0.2-0.2,0.3c0,0.3-0.1,0.6-0.1,0.8C12,13.1,12,13.3,12,13.6c0.2-0.2,0.4-0.4,0.7-0.4
		c0.3-0.1,0.5-0.1,0.6-0.1c0.2,0,0.4,0,0.6,0c0.2-0.1,0.4-0.1,0.5,0c0,0,0,0,0.1,0C14.8,12.9,15,12.8,15.1,12.7L15.1,12.7z
		 M22.8,19.8c0.1,0.4,0.1,0.7,0,1c-0.1,0.2-0.1,0.3-0.1,0.4c-0.1,0.2-0.1,0.3-0.2,0.4C22.2,21.9,22,22,21.6,22
		c-0.3,0-0.5-0.2-0.7-0.4c-0.2-0.3-0.3-0.6-0.3-0.8c0-0.2,0-0.4-0.1-0.5c0-0.1,0-0.3,0-0.4c0-0.2,0-0.4,0-0.6
		c-0.1-0.5-0.2-0.9-0.1-1.1c0.1-0.7,0.1-1.5,0-2.2c0-0.2,0-0.4,0-0.5c0-0.2,0-0.5,0-0.8c0-0.4,0-0.8,0-1c0.1-0.3,0.1-0.7,0-1
		c0-0.2-0.1-0.4-0.1-0.7c-0.1-0.2-0.3-0.3-0.4-0.3c-0.2-0.2-0.3-0.3-0.4-0.4c0,0-0.1,0-0.1,0c-0.5-0.2-1-0.2-1.5-0.1
		c-0.2,0.1-0.4,0.1-0.6,0.1c-0.2,0-0.3,0.1-0.4,0.1c-0.1,0-0.2,0.1-0.2,0.2c0,0,0,0.1,0,0.1c0,0.2,0,0.4,0,0.6c0,0.1,0,0.3-0.1,0.4
		c0,0,0,0.1,0,0.1c0.1,0.2,0.3,0.3,0.4,0.4c0,0,0,0,0,0.1c0.2,0,0.5,0,0.8,0c0.3,0,0.6,0,0.8,0c0.3,0,0.5,0.1,0.8,0.3
		c0.3,0.2,0.4,0.4,0.4,0.8c0,0.3-0.1,0.5-0.5,0.7c-0.4,0.1-0.9,0.1-1.4,0c-0.4-0.1-0.7-0.1-1.1,0c-0.3,0.1-0.6,0.1-0.8,0h0
		c-0.7,0.2-1.1,0.4-1.4,0.6l0,0c0,0.3,0,0.6-0.1,1c0,0.2,0,0.3,0,0.4c0,0.1,0,0.3,0,0.5c0,0.2,0,0.4,0.1,0.5c0,0.1,0.1,0.2,0.1,0.2
		c0.2,0.1,0.3,0.3,0.2,0.6c-0.1,0.2-0.3,0.4-0.5,0.5c-0.1,0-0.2,0-0.3,0c-0.1,0-0.2-0.1-0.4-0.1c-0.3-0.1-0.6-0.4-0.8-0.9
		c-0.1-0.7-0.2-1.2-0.1-1.6c0-0.2,0.1-0.4,0.1-0.5c0-0.1,0-0.1,0-0.2c0-0.1-0.1-0.2-0.1-0.3c-0.1-0.1-0.1-0.2-0.1-0.2
		c-0.1,0-0.3,0-0.4,0c-0.1-0.1-0.3-0.2-0.4-0.2c0,0,0,0.1,0,0.1c0,0.2,0,0.5-0.1,0.8c-0.1,0.3-0.2,0.5-0.1,0.7c0,0.2,0,0.3,0,0.4
		c0,0.1-0.1,0.2,0,0.4c0,0.1,0,0.3-0.1,0.5c-0.1,0.2-0.1,0.4-0.1,0.6c0,0.1,0,0.3-0.1,0.5c-0.2,0.6-0.4,1.1-0.5,1.5
		c-0.1,0.2-0.2,0.5-0.4,0.7c-0.3,0.3-0.6,0.4-0.8,0.4c-0.2,0-0.4,0-0.7-0.2c-0.2-0.2-0.4-0.4-0.4-0.6c0-0.2-0.1-0.4,0-0.6
		c0.1-0.2,0.1-0.4,0.2-0.6c0.1-0.1,0.3-0.3,0.4-0.6c0.3-0.3,0.4-0.6,0.4-0.8c0-0.2,0.1-0.3,0.1-0.4c0.1-0.4,0.3-0.7,0.3-1
		c0.1-0.2,0.1-0.4,0.1-0.6c0-0.7,0.1-1.3,0.4-1.9c0.1-0.4,0.2-0.8,0.1-1.1c0-0.3,0.1-0.5,0.1-0.6c0.1-0.2,0.1-0.5,0.1-0.7
		c-0.1-0.4-0.1-0.8,0-1.1c0-0.3,0-0.9-0.1-1.8c0-0.5-0.2-0.9-0.4-1.2c-0.3-0.4-0.5-1-0.5-1.6c-0.1-0.7,0-1.3,0.3-1.9
		c0.3-0.7,0.5-1,0.8-1.2c0.4-0.2,0.7-0.2,1,0c0,0,0,0,0,0c0.1,0,0.2,0,0.3,0c0.1,0,0.3,0,0.4,0c0.4-0.1,0.8-0.2,1.1-0.1
		c0.3,0.1,0.5,0.1,0.6,0c0.3-0.2,0.6-0.2,0.8-0.2c0.1,0,0.2,0,0.4-0.1c0.4-0.2,0.7-0.2,1-0.1c0.3,0.1,0.6,0.1,0.9,0
		c0.5-0.1,1-0.1,1.3,0c0.2,0,0.4,0,0.6,0c0.2,0,0.3,0.1,0.4,0.2c0.2,0.1,0.4,0.2,0.6,0.1c0.3,0,0.5,0,0.6,0.1
		c0.2,0.1,0.4,0.2,0.4,0.3c0.1,0.2,0.2,0.3,0.5,0.5c0.4,0.2,0.7,0.6,0.8,1.1c0.1,0.3,0.1,0.6,0,0.9c0,0.2-0.1,0.4-0.2,0.5
		c-0.1,0.1-0.2,0.3-0.2,0.4c0,0.2,0,0.3-0.1,0.4c-0.1,0.2-0.1,0.4-0.1,0.5c0.1,0.1,0.1,0.3,0,0.5c-0.1,0.6-0.1,1.1-0.1,1.8
		c0,0.4-0.1,0.8-0.2,1c0,0.1,0,0.4,0,0.6c0,0.2,0,0.5,0,0.8c-0.1,0.2-0.1,0.5,0,0.8c0.1,0.6,0.1,1.2,0.1,1.6
		c-0.1,0.8-0.1,1.3,0.1,1.7c0.3,1,0.5,1.7,0.5,2.3C22.7,19.1,22.7,19.5,22.8,19.8L22.8,19.8z M16.9,17.5c0.1,0,0.3-0.1,0.6-0.1
		c0.3,0,0.5-0.1,0.6-0.1c0.3-0.1,0.7-0.1,1,0.1c0.3,0.1,0.4,0.4,0.5,0.7c0,0.4-0.1,0.6-0.3,0.8c-0.3,0.2-0.8,0.3-1.3,0.2
		c-0.2,0-0.3,0-0.3,0c-0.1,0-0.2,0-0.3,0c-0.1,0-0.2,0-0.3,0.1c-0.3,0.1-0.7,0.1-1.1,0c-0.2-0.1-0.4-0.4-0.4-0.6
		c0-0.2,0.1-0.4,0.2-0.6c0.2-0.2,0.4-0.4,0.7-0.4C16.6,17.6,16.7,17.5,16.9,17.5L16.9,17.5z M13.5,6.1c0.1-0.1,0.1-0.1,0.2-0.2
		c0-0.1,0.2-0.2,0.5-0.2c0.2,0,0.5,0.1,0.6,0.3c0.2,0.3,0.3,0.5,0.3,0.7c0,0.1,0.1,0.2,0.1,0.3c0,0.1,0,0.2,0,0.3
		c0,0.2,0.1,0.4,0.1,0.5c0,0.1,0,0.3-0.1,0.5c-0.1,0.3-0.3,0.4-0.4,0.5c-0.2,0.1-0.3,0-0.6-0.3c-0.4-0.2-0.5-0.5-0.6-0.7
		c-0.2-0.4-0.3-0.6-0.3-0.8c0-0.1,0-0.3-0.1-0.5C13.4,6.2,13.4,6.1,13.5,6.1L13.5,6.1z M5.5,9.7C5.5,9.7,5.4,9.7,5.5,9.7
		C5.3,9.8,5.1,9.9,4.8,9.9c-0.2,0-0.4,0.2-0.4,0.4c-0.1,0.3-0.4,0.6-0.7,0.8c-0.2,0.1-0.3,0.3-0.3,0.5c0,0.3-0.1,0.5-0.3,0.6
		c-0.2,0.2-0.3,0.4-0.3,0.5C2.9,13,3,13.3,3.3,13.6c0.2,0.1,0.4,0.2,0.6,0.2c0.2,0,0.4,0.1,0.5,0.1C4.5,14,4.7,14,4.8,13.9
		c0.2-0.1,0.4-0.1,0.5-0.1c0.2,0,0.4,0,0.7-0.1c0.3-0.1,0.5-0.3,0.7-0.6c0,0,0,0,0,0c0-0.3,0-0.5,0.1-0.7C6.9,12.2,7,11.9,7,11.6
		c0-0.3-0.1-0.5-0.2-0.6c0-0.1-0.1-0.1-0.1-0.3c-0.1-0.2-0.2-0.3-0.3-0.4c-0.1-0.1-0.1-0.1-0.1-0.2c0-0.1-0.1-0.1-0.1-0.1
		C5.9,9.8,5.7,9.8,5.5,9.7L5.5,9.7z M1.1,13.6c0-0.2,0-0.4-0.1-0.6c-0.1-0.3,0-0.5,0.2-0.8c0.2-0.6,0.5-0.9,0.7-1
		c0.2-0.1,0.3-0.2,0.3-0.5c0-0.2,0.1-0.5,0.3-0.8c0.1-0.3,0.1-0.6,0-0.8c0-0.1-0.1-0.3-0.2-0.4C2.3,8.4,2.2,8.4,2.1,8.3
		C1.8,8.2,1.7,8.1,1.6,8C1.5,7.9,1.4,7.8,1.3,7.8C1.2,7.7,1.2,7.6,1.2,7.4c0-0.1,0-0.2-0.1-0.3C0.9,7,0.8,6.9,0.8,6.7
		c0-0.5,0-0.8,0.1-0.8c0.1-0.1,0.2-0.2,0.1-0.3c0-0.2,0.1-0.5,0.4-1C1.8,4,2,3.6,2.1,3.5c0.1,0,0.1-0.2,0.2-0.3
		c0.1-0.1,0.2-0.2,0.3-0.3c0.1-0.1,0.2-0.2,0.2-0.3c0-0.1,0.1-0.3,0.2-0.3c0.1,0,0.2-0.1,0.3-0.3c0.3-0.5,0.5-0.7,0.6-0.7
		c0.1,0,0.3,0,0.4-0.1C4.4,1,4.6,1,4.9,1.1c0.2,0.1,0.3,0.1,0.4,0.1c0.3-0.1,0.6,0,0.9,0.2c0.4,0.3,0.6,0.6,0.6,0.9
		c0,0.3,0,0.5-0.1,0.5C6.5,3,6.3,3.1,6.1,3.1c-0.2,0-0.3,0-0.4,0.1C5.6,3.2,5.4,3.3,5.2,3.3c-0.1,0-0.3,0-0.4,0.1
		C4.7,3.4,4.7,3.5,4.6,3.5c-0.1,0-0.2,0-0.3,0.1C4.2,3.8,4.1,3.9,4.1,4C4,4.2,4,4.3,3.9,4.4C3.8,4.5,3.7,4.6,3.6,4.8
		C3.5,5,3.4,5.2,3.4,5.2C3.3,5.3,3.2,5.5,3.1,5.9c-0.2,0.4-0.3,0.8-0.2,1c0.2,0.3,0.3,0.5,0.4,0.5c0.1,0,0.2,0.1,0.2,0.1
		c0,0.1,0.2,0.2,0.4,0.2c0.2,0,0.3,0.1,0.3,0.1C4.5,8,4.7,8,4.9,7.8C5,7.7,5.1,7.6,5.2,7.6c0.2,0,0.3-0.1,0.4-0.3
		C5.7,7.1,5.7,7,5.8,7C6,6.9,6.1,6.7,6.1,6.5c0.1-0.2,0.1-0.3,0.2-0.4C6.5,6,6.5,5.8,6.4,5.7c0-0.1-0.2-0.3-0.5-0.4
		C5.8,5.2,5.8,5,5.9,4.7C6,4.6,6.1,4.5,6.4,4.5c0.1,0,0.2-0.1,0.3-0.1c0.1-0.1,0.2-0.1,0.4,0c0.1,0.1,0.2,0.1,0.4,0.1
		c0.5,0,0.8,0.2,1.1,0.6c0.2,0.2,0.2,0.4,0.2,0.5c-0.1,0.1-0.1,0.3,0,0.5c0.1,0.2,0.1,0.4,0,0.6C8.7,7,8.5,7.2,8.4,7.2
		C8,7.3,7.6,7.5,7.4,7.7C7.3,7.8,7.2,8,7.2,8.1c0,0.1-0.1,0.2-0.1,0.3c0,0.1,0,0.1,0,0.1c0,0.2,0.1,0.4,0.1,0.6c0,0,0,0,0.1,0.1
		c0,0.1,0.1,0.2,0.2,0.2c0.2,0.1,0.3,0.2,0.3,0.4C7.8,9.9,7.9,10,8,10.2c0.1,0.1,0.2,0.2,0.3,0.4c0.1,0.3,0.2,0.7,0.2,0.9
		c0,0.4,0.1,0.6,0.2,0.8c0.1,0.2,0.1,0.4,0.1,0.6c0,0.4-0.1,0.7-0.3,0.9C8.3,13.9,8.2,14,8,14.1c-0.1,0.1-0.2,0.2-0.4,0.3
		c-0.3,0.2-0.6,0.4-0.8,0.7c-0.3,0.4-0.8,0.6-1.4,0.6c-0.2,0-0.5,0-0.7,0.1c-0.3,0.1-0.5,0-0.8-0.1c-0.3-0.2-0.6-0.3-0.9-0.2
		c-0.5,0-0.9-0.1-1.4-0.5C1.3,14.3,1.1,13.9,1.1,13.6L1.1,13.6z M6.9,16.4c0.1-0.1,0.2-0.1,0.2-0.2C7.2,16,7.4,16,7.7,16
		c0.3,0,0.5,0.1,0.6,0.3c0.2,0.3,0.3,0.5,0.3,0.8c0,0.1,0.1,0.2,0.1,0.3c0,0.1,0,0.2,0,0.3c0.1,0.2,0.1,0.4,0.1,0.5
		c0,0.2,0,0.3-0.1,0.5c-0.1,0.3-0.3,0.5-0.5,0.5c-0.2,0.1-0.4,0-0.6-0.3c-0.3-0.3-0.5-0.5-0.6-0.8c-0.2-0.4-0.3-0.7-0.3-0.8
		c0-0.1,0-0.3-0.1-0.6C6.8,16.6,6.9,16.4,6.9,16.4L6.9,16.4z M4.3,17.2c0.1,0,0.2-0.1,0.3-0.1c0.1-0.1,0.2-0.1,0.6,0
		c0.2,0.1,0.4,0.2,0.5,0.4c0.1,0.3,0.1,0.6,0.1,0.8c0,0.4,0,0.8,0.1,1.2c0,0.3,0,0.7-0.2,1c0,0.2,0,0.4-0.1,0.5
		c0,0.1-0.1,0.3-0.2,0.5c-0.2,0.2-0.4,0.4-0.6,0.4c-0.2,0-0.3-0.1-0.5-0.4C4.1,21.1,4,20.8,4,20.5c-0.1-0.9-0.2-1.5-0.1-1.8
		c0-0.2,0.1-0.6,0.2-1.2C4.1,17.3,4.2,17.2,4.3,17.2L4.3,17.2z M1.3,17.3c0.1-0.5,0.3-0.7,0.6-0.8c0.3-0.1,0.5,0,0.7,0.3
		c0.1,0.2,0.1,0.6,0,1c0,0.3,0,0.6,0,0.9c0.1,0.3,0.1,0.6-0.1,0.9c-0.1,0.3-0.3,0.5-0.5,0.7c-0.1,0.2-0.2,0.5-0.3,0.8
		c-0.1,0.3-0.2,0.5-0.4,0.6c-0.2,0.1-0.4,0.2-0.7,0.1c-0.3-0.1-0.5-0.3-0.5-0.6c-0.1-0.3-0.1-0.7,0-1c0.1-0.3,0.2-0.6,0.3-0.9
		c0-0.5,0.2-1,0.5-1.4C1.1,17.7,1.2,17.5,1.3,17.3L1.3,17.3z"/>
	<path class="st1" d="M34.8,18.8c0.2-0.2,0.4-0.4,0.7-0.5c0.2-0.1,0.5-0.3,0.7-0.5c0.3-0.2,0.6-0.4,0.8-0.5c0.4-0.2,0.9-0.5,1.4-0.9
		c0.5-0.3,0.8-0.6,1-0.7c0.1-0.2,0.3-0.4,0.5-0.5c0.5-0.3,0.9-0.6,1.3-1C41.4,14,41.7,14,42,14c0.4,0.1,0.6,0.3,0.5,0.7
		c-0.1,0.3-0.3,0.6-0.6,0.8c-0.2,0.1-0.3,0.3-0.5,0.5c-0.4,0.3-0.7,0.6-1,0.8c-0.3,0.1-0.5,0.3-0.6,0.6c-0.4,0.4-0.7,0.6-1,0.8
		c-0.1,0.2-0.1,0.3-0.1,0.5c-0.1,0.3-0.1,0.4-0.1,0.4c-0.1,0-0.3,0-0.4,0c-0.1,0-0.3,0-0.5,0c-0.1,0-0.1,0-0.1,0c0,0,0,0,0,0
		c-0.2,0.1-0.4,0.3-0.6,0.5c-0.2,0.2-0.5,0.3-0.9,0.5c-0.2,0.1-0.5,0.3-0.7,0.5c-0.2,0.2-0.6,0.4-1.1,0.6c-0.7,0.3-1.2,0.5-1.4,0.5
		c-0.2,0-0.4,0.1-0.7,0.4c-0.4,0.3-0.8,0.4-1.1,0.4c-0.5,0.1-0.8,0-1.1-0.1c-0.3-0.2-0.5-0.5-0.6-0.9c0-0.3,0.1-0.6,0.4-0.9
		c0.3-0.3,0.7-0.5,1.1-0.5c0.8-0.1,1.3-0.2,1.6-0.4c0.2-0.1,0.5-0.2,0.9-0.3C33.9,19.3,34.5,19,34.8,18.8L34.8,18.8z M41.5,22.6
		c-0.4,0.2-0.7,0.2-0.9,0.2c-0.3-0.1-0.5-0.2-0.7-0.2c-0.3,0-0.6-0.2-0.7-0.3c-0.1-0.2-0.2-0.4-0.3-0.5c-0.1-0.1-0.2-0.3-0.2-0.4
		c0-0.1-0.1-0.3-0.2-0.4c-0.2-0.2-0.3-0.5-0.3-0.8c0-0.3,0.1-0.5,0.2-0.6c0.2-0.2,0.5-0.1,0.9,0.1c0.2,0.1,0.4,0.2,0.6,0.4
		c0.1,0.1,0.2,0.1,0.3,0.1c0.3,0.1,0.8,0.1,1.4-0.1c0.8-0.2,1.3-0.3,1.5-0.5c0.1-0.1,0.2-0.2,0.3-0.2c0.3-0.1,0.7-0.5,1.1-1
		c0.2-0.2,0.3-0.4,0.4-0.5c0.3-0.3,0.5-0.8,0.7-1.4c0.1-0.7,0.1-1.2,0-1.5c-0.2-0.5-0.5-1-1-1.4c-0.1,0-0.2-0.1-0.2-0.1
		c-0.2,0-0.4,0-0.5,0c-0.3,0-0.4,0.1-0.6,0.1c-0.2,0-0.3,0.1-0.4,0.1c-0.1,0-0.2-0.2-0.2-0.5c-0.1-0.3-0.2-0.6-0.3-0.9
		c-0.1-0.1-0.1-0.2-0.1-0.2c-0.1,0-0.2,0-0.3,0c-0.4-0.1-0.7-0.1-0.9,0c-0.3,0.1-0.6,0.1-0.7,0c0,0,0,0-0.1,0
		c-0.1,0.2-0.3,0.5-0.6,0.7c-0.2,0.1-0.3,0.3-0.4,0.4c-0.3,0.3-0.7,0.5-1,0.7c-0.2,0.1-0.4,0.3-0.6,0.5c-0.4,0.3-0.7,0.5-0.9,0.7
		c-0.2,0.1-0.3,0.2-0.5,0.4c-0.2,0.2-0.5,0.4-0.8,0.6c-0.2,0.1-0.4,0.2-0.6,0.4c-0.2,0.2-0.4,0.3-0.8,0.4c-0.2,0.1-0.4,0.2-0.7,0.5
		c-0.2,0.1-0.6,0.3-1,0.5c-0.6,0.3-1,0.4-1.3,0.4c-0.1,0-0.4,0.1-0.7,0.3c-0.3,0.2-0.7,0.4-1,0.4c-0.4,0-0.8,0-1-0.2
		c-0.3-0.2-0.5-0.5-0.5-0.8c-0.1-0.2,0.1-0.5,0.4-0.8c0.3-0.3,0.6-0.4,1-0.4c0.7-0.1,1.2-0.2,1.5-0.3c0.2-0.1,0.4-0.2,0.8-0.2
		c0.8-0.3,1.4-0.5,1.6-0.7c0.2-0.2,0.4-0.3,0.6-0.4c0.2-0.1,0.4-0.3,0.6-0.4c0.3-0.2,0.6-0.4,0.8-0.5c0.4-0.2,0.8-0.5,1.3-0.8
		c0.4-0.3,0.7-0.5,0.9-0.6c0.1-0.2,0.3-0.3,0.4-0.4c0.4-0.2,0.7-0.4,1-0.7l0,0c-0.2-0.1-0.3-0.4-0.3-0.7c0-0.3,0.2-0.6,0.6-0.7
		c0.4-0.1,0.7-0.2,1-0.1c0.3,0,0.7,0.1,1,0.1c0.4,0.1,0.7,0.2,0.9,0.1c0.1,0,0.3-0.1,0.5,0c0.2,0.1,0.4,0.1,0.7,0.1
		c0.2,0,0.4,0,0.6,0.2c0.4,0.3,0.7,0.5,1.1,0.6c0.3,0.1,0.6,0.3,0.7,0.5c0.2,0.3,0.6,0.6,1,0.9c0.2,0.1,0.3,0.3,0.3,0.6
		c0.1,0.2,0.2,0.4,0.4,0.7c0.2,0.2,0.2,0.4,0.2,0.7c0,0.2,0.1,0.4,0.2,0.5c0.1,0.1,0.1,0.3,0,0.4c-0.1,0.2-0.1,0.4-0.1,0.7
		c0.1,0.2,0.1,0.6-0.1,1.1c0,0.1,0,0.3,0,0.5c0,0.3-0.2,0.7-0.5,1.2c-0.4,0.5-0.7,0.8-0.8,0.8c-0.1,0.1-0.2,0.2-0.3,0.5
		c-0.2,0.3-0.6,0.7-1.1,1c-1,0.7-1.7,1.1-2.1,1.1C42.3,22.3,41.9,22.4,41.5,22.6L41.5,22.6z M33.4,2.4c-0.5-0.1-0.7-0.4-0.7-0.7
		c0-0.4,0.1-0.6,0.4-0.8c0.3-0.3,0.7-0.4,1.2-0.4c0.3,0,0.6-0.1,0.9-0.1C35.5,0.1,36,0,36.6,0c0.7,0,1.2,0,1.6,0.1
		c0.5,0.1,1.1,0.2,1.6,0.1c0.9-0.1,1.6,0,2.3,0.3c0.2,0.1,0.4,0.2,0.7,0.2c0.4,0,0.7,0.2,1.1,0.5c0.4,0.3,0.6,0.5,0.6,0.7
		c0,0.2,0.1,0.4,0.3,0.5c0.2,0.2,0.3,0.7,0.3,1.3c0.1,0.3,0.1,0.6,0.2,0.8c0.1,0.2,0.2,0.6,0.2,1c0,0.5,0,1,0,1.5
		c0,0.7-0.2,1.2-0.5,1.5c-0.2,0.4-0.6,0.7-1.2,0.9c-0.4,0.2-0.9,0.3-1.6,0.2c-0.4,0-0.8,0-1.1,0c-0.4,0.1-0.7,0.1-1,0.1
		c-0.3-0.1-0.6-0.2-0.9-0.1c-0.4,0.2-0.7,0.2-1,0.1c-0.2-0.1-0.5-0.1-0.7-0.1c-0.1,0.3-0.2,0.6-0.3,0.8c-0.1,0.2-0.4,0.5-0.7,0.7
		c-0.2,0.1-0.3,0.3-0.4,0.4c-0.1,0.2-0.3,0.4-0.5,0.5c-0.2,0.1-0.4,0.2-0.6,0.4c-0.3,0.3-0.6,0.5-1,0.6c-0.3,0.1-0.6,0.3-0.8,0.4
		c-0.2,0.2-0.6,0.3-1,0.3c-0.4,0-0.7,0.1-1,0.3c-0.3,0.1-0.6,0.2-0.7,0.2c-0.2,0-0.4,0-0.5,0c-0.4,0.1-0.8,0.2-1.2,0.1
		c-0.3-0.1-0.5-0.2-0.5-0.3c0-0.1-0.1-0.2-0.1-0.2c-0.1,0-0.1-0.2-0.1-0.3c0-0.3,0-0.5,0.2-0.7c0.1-0.1,0.4-0.3,0.7-0.4
		c0.3-0.1,0.6-0.1,0.9,0c0.2,0,0.5,0.1,0.8,0.1c0.3,0,0.6-0.1,0.9-0.3c0.3-0.2,0.5-0.3,0.8-0.3c0.3,0,0.6-0.2,0.8-0.4
		c0.2-0.2,0.5-0.3,0.7-0.3c0.4-0.2,0.7-0.4,0.9-0.7c0.1-0.2,0.2-0.4,0.3-0.5c-0.4-0.1-0.8-0.1-1.2,0.1c-0.2,0.1-0.6,0.1-1.2-0.1
		c-0.6-0.2-0.9-0.4-1-0.6c-0.1-0.3-0.2-0.5-0.5-0.7c-0.2-0.2-0.3-0.5-0.3-1c0-0.8-0.1-1.4-0.1-1.9c-0.1-0.3-0.1-0.6,0-0.9
		c0-0.2,0-0.4,0-0.6c0-0.5,0.1-0.8,0.2-1.2c0.1-0.2,0.3-0.4,0.4-0.5c0.2-0.1,0.3-0.2,0.5-0.2c0.2,0,0.4,0.1,0.5,0.1
		c0.1,0.1,0.3,0.3,0.3,0.6c0.1,0.3,0.1,0.8,0.1,1.4c-0.1,0.8-0.1,1.4-0.1,1.8C32.7,6.6,32.8,7,33,7.2c0.2,0.3,0.5,0.6,0.9,0.7
		c0.6,0.2,1.3,0.2,2-0.1c1-0.3,1.9-0.3,2.8-0.1c0.6,0.1,1.1,0.1,1.5-0.1c0.4-0.1,0.9-0.2,1.5-0.2c0.5,0.1,0.8-0.1,1.1-0.4
		c0.2-0.2,0.4-0.5,0.5-0.9c0.1-0.5,0-0.9-0.1-1.3c-0.1-0.3-0.2-0.6-0.2-0.9c0-0.2-0.1-0.4-0.1-0.6c-0.2-0.2-0.3-0.4-0.3-0.5
		c-0.1-0.2-0.2-0.3-0.3-0.4c-0.2-0.1-0.3-0.1-0.4-0.2c-0.2-0.2-0.9-0.4-2.3-0.4c-0.9,0-1.7,0-2.3-0.1c-0.8-0.2-1.6-0.1-2.3,0.3
		C34.5,2.4,34,2.5,33.4,2.4L33.4,2.4z M36.7,4c0.6-0.1,1.2-0.1,1.9,0c0.5,0.1,0.9,0.2,1.3,0c0.4-0.1,0.8-0.1,1.1,0.1
		c0.3,0.2,0.5,0.5,0.5,0.9c-0.1,0.3-0.2,0.6-0.4,0.7c-0.3,0.1-0.6,0.1-0.8,0c-0.5-0.1-1-0.1-1.4,0c-0.5,0.2-0.9,0.2-1.3,0
		c-0.4-0.1-1-0.1-1.7,0.1c-0.5,0.2-1,0.2-1.3,0c-0.3-0.2-0.4-0.5-0.4-0.8c0-0.3,0.2-0.6,0.4-0.8C34.7,4,34.9,4,35.3,4.1
		C35.7,4.2,36.1,4.2,36.7,4L36.7,4z"/>
	<polygon class="st2" points="66.4,12.7 73.8,12.7 73.8,14.6 69.2,14.6 69.2,16 73.4,16 73.4,17.8 69.2,17.8 69.2,19.6 73.9,19.6 
		73.9,21.6 66.4,21.6 	"/>
	<polygon class="st2" points="74.8,12.7 83.1,12.7 83.1,14.9 80.3,14.9 80.3,21.6 77.6,21.6 77.6,14.9 74.8,14.9 	"/>
	<path class="st2" d="M100.5,21.6h2.9l-3.3-8.9h-3l-3.3,8.9h2.8l0.4-1.5h3.1L100.5,21.6L100.5,21.6z M97.6,18.2l1-3.2l1,3.2H97.6
		L97.6,18.2z"/>
	<path class="st2" d="M103.9,18.6l2.6-0.2c0.1,0.4,0.2,0.7,0.3,1c0.3,0.4,0.7,0.5,1.2,0.5c0.4,0,0.7-0.1,0.9-0.3
		c0.2-0.2,0.3-0.4,0.3-0.6c0-0.2-0.1-0.4-0.3-0.6c-0.2-0.2-0.7-0.4-1.4-0.5c-1.2-0.3-2.1-0.6-2.6-1.1c-0.5-0.4-0.8-1-0.8-1.7
		c0-0.5,0.1-0.9,0.4-1.3c0.3-0.4,0.7-0.7,1.2-1c0.5-0.2,1.3-0.3,2.2-0.3c1.1,0,2,0.2,2.6,0.6c0.6,0.4,0.9,1.1,1.1,2l-2.6,0.2
		c-0.1-0.4-0.2-0.7-0.4-0.9c-0.2-0.2-0.5-0.3-0.9-0.3c-0.3,0-0.6,0.1-0.7,0.2c-0.2,0.1-0.2,0.3-0.2,0.5c0,0.1,0.1,0.3,0.2,0.4
		c0.1,0.1,0.4,0.2,0.9,0.3c1.2,0.3,2,0.5,2.6,0.8c0.5,0.3,0.9,0.6,1.1,1c0.2,0.4,0.3,0.8,0.3,1.3c0,0.6-0.2,1.1-0.5,1.6
		c-0.3,0.5-0.8,0.8-1.3,1.1c-0.6,0.2-1.3,0.4-2.1,0.4c-1.5,0-2.5-0.3-3.1-0.9C104.3,20.3,104,19.5,103.9,18.6L103.9,18.6z"/>
	<polygon class="st2" points="113.5,12.7 120.8,12.7 120.8,14.6 116.2,14.6 116.2,16 120.5,16 120.5,17.8 116.2,17.8 116.2,19.6 
		120.9,19.6 120.9,21.6 113.5,21.6 	"/>
	<polygon class="st2" points="55.4,10.4 58.1,10.4 61.7,16.6 61.7,10.4 64.4,10.4 64.4,21.5 61.7,21.5 58.1,15.4 58.1,21.5 
		55.4,21.5 	"/>
	<polygon class="st2" points="84.2,10.4 92,10.4 92,12.8 87.2,12.8 87.2,14.5 91.7,14.5 91.7,16.8 87.2,16.8 87.2,19 92.2,19 
		92.2,21.5 84.2,21.5 	"/>
	<path class="st2" d="M51.5,27.8v9.3h-2.4v-6.1c-0.4,0.3-0.8,0.6-1.1,0.8c-0.4,0.2-0.8,0.4-1.4,0.6v-2.1c0.8-0.3,1.5-0.6,1.9-1
		c0.5-0.4,0.8-0.9,1.1-1.5L51.5,27.8L51.5,27.8z"/>
	<path class="st2" d="M64.1,28.8c-0.3-0.3-0.6-0.6-1-0.7c-0.4-0.2-0.9-0.3-1.6-0.3c-1.2,0-2.1,0.4-2.7,1.2c-0.6,0.8-1,2-1,3.6
		c0,1.1,0.2,2,0.5,2.7c0.3,0.7,0.7,1.2,1.2,1.5c0.5,0.3,1.2,0.5,2.1,0.5c0.7,0,1.3-0.1,1.8-0.4c0.5-0.3,0.8-0.6,1.1-1.1
		c0.3-0.5,0.4-1.1,0.4-1.7c0-0.9-0.3-1.6-0.8-2.2c-0.5-0.6-1.2-0.9-1.9-0.9c-0.4,0-0.7,0.1-1,0.2c-0.3,0.1-0.6,0.4-0.9,0.7
		c0.1-1,0.2-1.6,0.3-1.9c0.2-0.4,0.5-0.6,0.9-0.6c0.2,0,0.4,0.1,0.5,0.2c0.1,0.1,0.3,0.4,0.3,0.7l2.4-0.3
		C64.6,29.6,64.4,29.1,64.1,28.8L64.1,28.8z M60.7,33c0.2-0.3,0.5-0.4,0.8-0.4c0.3,0,0.6,0.1,0.8,0.4c0.2,0.3,0.3,0.7,0.3,1.2
		c0,0.5-0.1,0.9-0.3,1.1c-0.2,0.3-0.5,0.4-0.8,0.4c-0.3,0-0.6-0.1-0.9-0.4c-0.2-0.3-0.4-0.7-0.4-1.2C60.3,33.6,60.4,33.3,60.7,33
		L60.7,33z"/>
	<path class="st2" d="M72.6,30.6l-2.3-0.4c0.2-0.8,0.5-1.4,1.1-1.8c0.5-0.4,1.3-0.6,2.3-0.6c1.1,0,1.9,0.2,2.4,0.7
		c0.5,0.4,0.8,1,0.8,1.7c0,0.4-0.1,0.7-0.3,1.1c-0.2,0.3-0.5,0.6-0.9,0.8c0.3,0.1,0.6,0.2,0.8,0.3c0.3,0.2,0.5,0.4,0.7,0.7
		c0.2,0.3,0.2,0.7,0.2,1.1c0,0.5-0.1,1-0.4,1.5c-0.3,0.5-0.6,0.9-1.1,1.1c-0.5,0.3-1.1,0.4-1.9,0.4c-0.8,0-1.4-0.1-1.8-0.3
		c-0.4-0.2-0.8-0.5-1.1-0.9c-0.3-0.4-0.5-0.9-0.7-1.4l2.4-0.3c0.1,0.5,0.2,0.9,0.4,1.1c0.2,0.2,0.4,0.3,0.8,0.3
		c0.3,0,0.6-0.1,0.8-0.4c0.2-0.2,0.3-0.6,0.3-1c0-0.4-0.1-0.8-0.3-1c-0.2-0.2-0.5-0.4-0.8-0.4c-0.2,0-0.4,0-0.8,0.2l0.1-1.8
		c0.1,0,0.2,0,0.3,0c0.3,0,0.6-0.1,0.8-0.3c0.2-0.2,0.3-0.5,0.3-0.8c0-0.3-0.1-0.5-0.2-0.7c-0.2-0.2-0.4-0.2-0.6-0.2
		c-0.3,0-0.5,0.1-0.7,0.3C72.8,29.9,72.7,30.2,72.6,30.6L72.6,30.6z"/>
	<polygon class="st2" points="0.1,30.5 1.9,30.5 2.6,34 3.5,30.5 5.4,30.5 6.3,34 7,30.5 8.9,30.5 7.5,36.8 5.6,36.8 4.5,32.8 
		3.4,36.8 1.5,36.8 	"/>
	<polygon class="st2" points="12.9,30.5 14.8,30.5 15.4,34 16.4,30.5 18.2,30.5 19.2,34 19.9,30.5 21.7,30.5 20.3,36.8 18.4,36.8 
		17.3,32.8 16.2,36.8 14.3,36.8 	"/>
	<polygon class="st2" points="25.8,30.5 27.6,30.5 28.3,34 29.3,30.5 31.1,30.5 32,34 32.7,30.5 34.6,30.5 33.2,36.8 31.3,36.8 
		30.2,32.8 29.1,36.8 27.2,36.8 	"/>
	<polygon class="st2" points="39.7,32.7 41.6,32.7 41.6,34.5 39.7,34.5 	"/>
	<polygon class="st2" points="82.9,32.7 84.8,32.7 84.8,34.5 82.9,34.5 	"/>
	<path class="st2" d="M95.2,34.2l1.7,0.5c-0.1,0.5-0.3,0.9-0.5,1.2c-0.2,0.3-0.5,0.6-0.9,0.7c-0.4,0.2-0.8,0.2-1.4,0.2
		c-0.7,0-1.2-0.1-1.7-0.3c-0.4-0.2-0.8-0.5-1.1-1c-0.3-0.5-0.5-1.1-0.5-1.9c0-1,0.3-1.8,0.8-2.4c0.6-0.6,1.3-0.8,2.4-0.8
		c0.8,0,1.4,0.2,1.9,0.5c0.5,0.3,0.8,0.8,1,1.5l-1.7,0.4c-0.1-0.2-0.1-0.3-0.2-0.4c-0.1-0.2-0.2-0.3-0.4-0.3
		c-0.2-0.1-0.3-0.1-0.5-0.1c-0.4,0-0.8,0.2-1,0.5c-0.2,0.3-0.3,0.7-0.3,1.2c0,0.7,0.1,1.2,0.3,1.4c0.2,0.3,0.5,0.4,0.9,0.4
		c0.4,0,0.7-0.1,0.8-0.3C95,34.9,95.1,34.6,95.2,34.2L95.2,34.2z"/>
	<path class="st2" d="M102.5,35.5c0.3,0.5,0.7,0.8,1.1,1.1c0.5,0.2,1.1,0.3,1.8,0.3c0.7,0,1.3-0.1,1.7-0.4c0.5-0.3,0.8-0.6,1.1-1.1
		c0.3-0.5,0.4-1.1,0.4-1.8c0-1-0.3-1.8-0.8-2.4c-0.6-0.6-1.4-0.8-2.4-0.8c-1,0-1.8,0.3-2.4,0.9c-0.6,0.6-0.9,1.4-0.9,2.4
		C102.1,34.4,102.2,35,102.5,35.5L102.5,35.5z M104.4,32.3c0.2-0.3,0.5-0.4,0.9-0.4c0.4,0,0.7,0.1,1,0.4c0.2,0.3,0.4,0.7,0.4,1.3
		c0,0.7-0.1,1.2-0.3,1.5c-0.2,0.3-0.5,0.4-1,0.4c-0.4,0-0.7-0.1-1-0.4c-0.2-0.3-0.4-0.7-0.4-1.4C104,33,104.2,32.5,104.4,32.3
		L104.4,32.3z"/>
	<path class="st2" d="M119.1,30.4c-0.6,0-1,0.4-1.3,0.7c-0.3-0.4-0.7-0.7-1.3-0.7c-0.5,0-0.8,0.2-1.1,0.5c0,0,0-0.3,0-0.3h-1.7v6
		h1.7v-3.6c0-0.8,0.4-0.8,0.5-0.8c0.4,0,0.5,0.3,0.5,0.9v3.5h1.7V33c0-0.9,0.4-0.9,0.6-0.9c0.3,0,0.4,0.3,0.4,0.8v3.6h1.7v-4
		C120.9,31.2,120.2,30.4,119.1,30.4L119.1,30.4z"/>
</g>
<g>
	<path class="st3" d="M201,34.2c0,3.3-2.7,6-6,6h-28c-3.3,0-6-2.7-6-6v-28c0-3.3,2.7-6,6-6h28c3.3,0,6,2.7,6,6V34.2z"/>
</g>
<g>
	<linearGradient id="SVGID_1_" gradientUnits="userSpaceOnUse" x1="209.939" y1="20.175" x2="249.939" y2="20.175">
		<stop  offset="0" style="stop-color:#FF0000"/>
		<stop  offset="1" style="stop-color:#FF3264"/>
	</linearGradient>
	<path class="st4" d="M249.9,34.2c0,3.3-2.7,6-6,6h-28c-3.3,0-6-2.7-6-6v-28c0-3.3,2.7-6,6-6h28c3.3,0,6,2.7,6,6V34.2z"/>
</g>
<g>
	<path class="st5" d="M298.2,34.2c0,3.3-2.7,6-6,6h-28c-3.3,0-6-2.7-6-6v-28c0-3.3,2.7-6,6-6h28c3.3,0,6,2.7,6,6V34.2z"/>
</g>
<g>
	<path class="st6" d="M341.3,34.2c0,3.3-2.7,6-6,6h-28c-3.3,0-6-2.7-6-6v-28c0-3.3,2.7-6,6-6h28c3.3,0,6,2.7,6,6V34.2z"/>
</g>
<path class="st7" d="M272.3,22c-0.2,0-0.5,0-0.7-0.1c-0.8-0.3-1.3-1-1.4-1.9c-0.1-1.7,1.5-4.3,5.1-6.1c3.1-1.5,6.3-1.4,9.1-1.2
	c1.9,0.1,3.7,0.2,5.1-0.3c1-0.3,1.9-1,2.5-2c-2.1,1.2-4.2,1.2-6.3,1.1c-0.3,0-0.5-0.2-0.5-0.5c0-0.3,0.2-0.5,0.5-0.5
	c2.4,0.1,4.9,0,7.2-2l1.4-1.2l-0.6,1.7c-0.8,2.2-2,3.6-3.9,4.2c-1.6,0.5-3.5,0.4-5.5,0.3c-2.7-0.1-5.7-0.3-8.7,1.1
	c-3.1,1.5-4.7,3.7-4.6,5.1c0,0.5,0.3,0.8,0.7,1c0.7,0.3,1.4-0.3,2.6-1.3c1.2-1,2.6-2.3,4.8-3.1c0.4-0.2,0.5-0.4,0.5-0.6
	c0-0.2-0.3-0.3-0.6-0.2c-2,0.4-4.4,1.9-6,3.7c-0.2,0.2-0.5,0.2-0.7,0.1c-0.2-0.2-0.2-0.5-0.1-0.7c1.7-2,4.3-3.6,6.5-4.1
	c1-0.2,1.6,0.3,1.8,0.9c0.2,0.6-0.1,1.5-1.1,1.8c-2,0.8-3.4,1.9-4.5,2.9C274.2,21.3,273.3,22,272.3,22z M273.2,24.1
	c1.2-0.4,2.5-1.2,4.3-2.7c2.1-1.8,3.7-2.1,5.5-2.5c1.7-0.3,3.5-0.7,5.8-2.3c-1.4,2.3-3.2,3.3-4.3,3.7c-0.3,0.1-0.4,0.4-0.3,0.6
	c0.1,0.2,0.4,0.4,0.6,0.3c1.5-0.6,4.1-2.1,5.7-6l0.7-1.7l-1.4,1.2c-3,2.4-5.1,2.8-7.1,3.2c-1.9,0.4-3.7,0.8-6,2.7
	c-3.2,2.8-5,3.3-6.9,2c-0.8-0.6-1.2-1.8-1.1-3.1c0.2-1.3,1.1-4.6,6.6-6.9c2.8-1.2,5.6-1.2,8.3-1.1c0.3,0,0.5-0.2,0.5-0.5
	c0-0.3-0.2-0.5-0.5-0.5c-2.8-0.1-5.7-0.1-8.7,1.1c-5.9,2.5-7,6.2-7.2,7.6c-0.2,1.7,0.4,3.2,1.5,4c0.8,0.6,1.7,0.9,2.5,0.9
	C272.4,24.3,272.8,24.2,273.2,24.1z M272.5,32.8c4.2-0.2,8.5-2.1,11.2-5.1c1.6-1.8,2.4-3.6,2.2-5.3c0-0.3-0.3-0.5-0.5-0.4
	c-0.3,0-0.5,0.3-0.4,0.5c0.1,1.4-0.6,3.1-2,4.6c-2.5,2.8-6.5,4.6-10.5,4.8c-0.3,0-0.5,0.2-0.5,0.5C272,32.6,272.3,32.8,272.5,32.8
	C272.5,32.8,272.5,32.8,272.5,32.8z M270.7,25.9c0.1-0.3-0.1-0.5-0.4-0.6c-0.1,0-0.2-0.1-0.4-0.1c0,0-0.1,0-0.1,0
	c-1.4-0.4-2.5-1.6-3-3.1c-0.7-2.1-0.1-4.6,1.6-6.7l1.1-1.4l-1.7,0.6c-2.3,0.9-4.2,2.6-5.2,4.7c-0.1,0.2,0,0.5,0.2,0.6
	c0.2,0.1,0.5,0,0.6-0.2c0.7-1.4,1.7-2.6,3.1-3.4c-0.4,0.8-0.7,1.6-0.9,2.4c-0.3,1.3-0.2,2.5,0.1,3.7c0.6,1.8,1.9,3.2,3.6,3.7
	c0,0,0.1,0,0.1,0c0.1,0,0.3,0.1,0.4,0.1c0,0,0.1,0,0.1,0C270.5,26.3,270.7,26.1,270.7,25.9z M275.7,30.2c2.1-0.7,4-1.7,5.4-3
	c1.4-1.2,2.3-2.5,2.5-3.7c0.1-1-0.2-1.8-1.1-2.4c-1.6-1-3,0.2-4.6,1.5c-1.6,1.3-3.4,2.7-5.7,2.9c-0.3,0-0.5,0.3-0.5,0.5
	c0,0.3,0.3,0.5,0.5,0.5c2.7-0.2,4.7-1.8,6.3-3.1c1.6-1.3,2.6-2,3.5-1.4c0.6,0.3,0.7,0.8,0.7,1.5c-0.3,1.8-3,4.5-7.2,5.9
	c-0.3,0.1-0.4,0.4-0.3,0.6c0.1,0.2,0.3,0.3,0.5,0.3C275.6,30.2,275.7,30.2,275.7,30.2z M273.7,30.6c0.3,0,0.4-0.3,0.4-0.6
	s-0.3-0.4-0.6-0.4c-2.2,0.4-4.3,0.1-6.3-0.7c-3.2-1.3-4.8-4.3-4.2-7.5c0-0.3-0.1-0.5-0.4-0.6c-0.3,0-0.5,0.1-0.6,0.4
	c-0.3,1.7,0,3.5,0.8,5c0.9,1.6,2.3,2.8,4.1,3.6c1.5,0.6,3,0.9,4.7,0.9C272.3,30.8,273,30.8,273.7,30.6z M273.6,28.4
	c4.4-0.9,6.5-3.4,7.7-4.6c0.2-0.2,0.2-0.5,0-0.7c-0.2-0.2-0.5-0.2-0.7,0c-1.1,1.2-3.4,3.6-7.5,4.4c-1.4,0.3-2.6,0.2-3.7-0.1
	c-0.3-0.1-0.5,0.1-0.6,0.4c-0.1,0.3,0.1,0.5,0.4,0.6c0.6,0.2,1.4,0.3,2.1,0.3C271.9,28.6,272.8,28.6,273.6,28.4z M267.9,27.4
	c0.1-0.2,0.1-0.5-0.2-0.7c-1.7-1-2.6-2.6-2.7-3.8c0-0.3-0.3-0.5-0.5-0.4c-0.3,0-0.5,0.3-0.4,0.5c0.2,1.4,1.2,3.3,3.2,4.5
	c0.1,0,0.2,0.1,0.3,0.1C267.6,27.6,267.8,27.5,267.9,27.4z"/>
<path class="st7" d="M192.1,10.2H170c-0.1,0-1.8,0.1-1.8,1.8v18.2h25.7V11.7C193.8,10.3,192.2,10.2,192.1,10.2z M191.4,11.6
	L181,22.2l-10.4-10.6H191.4z M169.7,12.7l7.3,7.5l-7.3,7.5V12.7z M170.7,28.7l7.3-7.5l2.2,2.2c0,0,0.4,0.4,0.9,0.4
	c0.3,0,0.6-0.1,0.9-0.4l2.2-2.2l7.3,7.5H170.7z M192.4,27.6l-7.3-7.5l7.3-7.5V27.6z"/>
<g>
	<path class="st7" d="M330.7,33.1h-18.8c-1.8,0-3.2-1.3-3.2-3.2c0-1.2,1.1-2.9,2-4.4c0.2-0.3,0.4-0.6,0.6-0.9
		c0.9-1.4,2.8-3.8,4.7-4.5c0.3-0.1,0.7,0,0.9,0.4c0.1,0.3,0,0.7-0.4,0.9c-1.3,0.6-3.1,2.5-4,4c-0.2,0.3-0.4,0.6-0.6,0.9
		c-0.8,1.2-1.8,2.8-1.8,3.6c0,1.3,0.9,1.8,1.8,1.8h18.8c1.1,0,1.8-0.8,1.8-1.8c0-0.9-0.9-2.8-2.8-5.5c-0.1-0.1-0.1-0.2-0.2-0.3
		c-0.7-1.2-2.3-3.7-8.3-3.7l-0.1,0c-4.5-0.4-7.8-3.7-7.8-7.9c0-4.3,3.5-7.9,7.9-7.9c4.3,0,7.9,3.5,7.9,7.9c0,1-0.2,1.9-0.5,2.8
		c0,0-0.5,1.5-1.6,2.6c-0.3,0.3-0.7,0.3-0.9,0c-0.3-0.3-0.3-0.7,0-0.9c0.9-0.9,1.3-2.1,1.3-2.1c0.3-0.8,0.4-1.5,0.4-2.3
		c0-3.6-2.9-6.5-6.5-6.5s-6.5,2.9-6.5,6.5c0,3.5,2.8,6.2,6.6,6.5c6.7,0,8.5,3,9.3,4.3c0.1,0.1,0.1,0.2,0.2,0.3c1.4,2.1,3,4.7,3,6.3
		C333.9,31.7,332.5,33.1,330.7,33.1z"/>
</g>
<g>
	<g>
		<g>
			<path class="st8" d="M443.7,27.3l-0.8,3.9c-0.1,0.5-0.2,0.7-0.8,0.7h-0.2c-0.5,0-0.7-0.2-0.8-0.7l-0.7-2.6c0,0,0,0,0,0
				c0,0,0,0,0,0l-0.7,2.6c-0.1,0.4-0.4,0.7-0.8,0.7h-0.2c-0.5,0-0.7-0.2-0.8-0.7l-0.8-3.9c0,0,0,0,0,0c0-0.1,0.1-0.2,0.2-0.2h0.8
				c0.1,0,0.1,0.1,0.2,0.2l0.5,3.6c0,0.1,0,0.1,0,0.1c0,0,0,0,0.1-0.1l0.7-2.9c0.1-0.3,0.2-0.4,0.5-0.4h0.6c0.3,0,0.4,0,0.5,0.4
				l0.7,2.9c0,0.1,0,0.1,0.1,0.1c0,0,0,0,0-0.1l0.5-3.6c0-0.1,0.1-0.2,0.2-0.2h0.8C443.6,27.1,443.7,27.1,443.7,27.3
				C443.7,27.2,443.7,27.2,443.7,27.3z"/>
			<path class="st8" d="M451.2,27.3l-0.8,3.9c-0.1,0.5-0.2,0.7-0.8,0.7h-0.2c-0.5,0-0.7-0.2-0.8-0.7l-0.7-2.6c0,0,0,0,0,0
				c0,0,0,0,0,0l-0.7,2.6c-0.1,0.4-0.3,0.7-0.8,0.7h-0.2c-0.5,0-0.7-0.2-0.8-0.7l-0.8-3.9c0,0,0,0,0,0c0-0.1,0.1-0.2,0.2-0.2h0.8
				c0.1,0,0.1,0.1,0.2,0.2l0.5,3.6c0,0.1,0,0.1,0,0.1c0,0,0,0,0.1-0.1l0.7-2.9c0.1-0.3,0.2-0.4,0.5-0.4h0.6c0.3,0,0.4,0,0.5,0.4
				l0.7,2.9c0,0.1,0,0.1,0.1,0.1c0,0,0,0,0-0.1l0.5-3.6c0-0.1,0.1-0.2,0.2-0.2h0.8C451.1,27.1,451.2,27.1,451.2,27.3
				C451.2,27.2,451.2,27.2,451.2,27.3z"/>
			<path class="st8" d="M458.7,27.3l-0.8,3.9c-0.1,0.5-0.2,0.7-0.8,0.7h-0.2c-0.5,0-0.7-0.2-0.8-0.7l-0.7-2.6c0,0,0,0,0,0
				c0,0,0,0,0,0l-0.7,2.6c-0.1,0.4-0.3,0.7-0.8,0.7h-0.2c-0.5,0-0.7-0.2-0.8-0.7l-0.8-3.9c0,0,0,0,0,0c0-0.1,0.1-0.2,0.2-0.2h0.8
				c0.1,0,0.1,0.1,0.2,0.2l0.5,3.6c0,0.1,0,0.1,0,0.1c0,0,0,0,0.1-0.1l0.7-2.9c0.1-0.3,0.2-0.4,0.5-0.4h0.6c0.3,0,0.4,0,0.5,0.4
				l0.7,2.9c0,0.1,0,0.1,0.1,0.1c0,0,0,0,0-0.1l0.5-3.6c0-0.1,0.1-0.2,0.2-0.2h0.8C458.6,27.1,458.7,27.1,458.7,27.3
				C458.7,27.2,458.7,27.2,458.7,27.3z"/>
			<path class="st8" d="M460.9,31.9h-0.8c-0.1,0-0.2-0.1-0.2-0.2v-1c0-0.1,0.1-0.2,0.2-0.2h0.8c0.1,0,0.2,0.1,0.2,0.2v1
				C461,31.8,461,31.9,460.9,31.9z"/>
			<path class="st8" d="M465.4,31.9h-0.8c-0.1,0-0.2-0.1-0.2-0.2v-5l-1,0.3c0,0-0.1,0-0.1,0c-0.1,0-0.1,0-0.1-0.1v-0.8
				c0-0.1,0-0.1,0.1-0.1l1.4-0.5c0,0,0.1,0,0.2,0h0.6c0.1,0,0.2,0.1,0.2,0.2v6C465.5,31.8,465.4,31.9,465.4,31.9z"/>
			<path class="st8" d="M470.7,31.9c-1.3,0-2.2-0.8-2.2-2.6v-1c0-2.1,0.8-2.9,2.4-2.9c0.7,0,1.3,0.1,1.6,0.2c0.1,0,0.2,0.1,0.2,0.2
				v0.5c0,0.1-0.1,0.2-0.2,0.2c0,0,0,0,0,0c-0.3,0-1.1-0.1-1.6-0.1c-0.9,0-1.2,0.4-1.2,1.5c0.3-0.1,0.7-0.1,1.2-0.1
				c1.1,0,2.1,0.5,2.1,1.9v0.1C472.9,31.1,472.1,31.9,470.7,31.9z M471.8,29.7c0-0.8-0.5-1-1.2-1c-0.2,0-0.7,0-0.9,0.1v0.5
				c0,1.4,0.5,1.7,1.1,1.7C471.3,31,471.8,30.8,471.8,29.7L471.8,29.7L471.8,29.7z"/>
			<path class="st8" d="M476.4,31.9c-0.6,0-1.1-0.1-1.6-0.2c-0.1,0-0.2-0.1-0.2-0.2V31c0-0.1,0.1-0.2,0.2-0.2c0,0,0,0,0,0
				c0.7,0.1,1.2,0.1,1.6,0.1c0.7,0,1-0.3,1-0.9v-0.2c0-0.5-0.1-0.9-0.8-0.9H475c-0.1,0-0.2-0.1-0.2-0.2v-0.5c0-0.1,0.1-0.2,0.2-0.2
				h1.5c0.6,0,0.8-0.4,0.8-0.8v-0.1c0-0.4-0.2-0.8-1-0.8c-0.6,0-0.9,0-1.6,0.1c0,0,0,0,0,0c-0.1,0-0.2-0.1-0.2-0.2v-0.5
				c0-0.1,0.1-0.1,0.2-0.2c0.5-0.1,1-0.2,1.6-0.2c1.2,0,2.1,0.5,2.1,1.8v0.1c0,0.6-0.3,1-0.7,1.3c0.5,0.3,0.7,0.7,0.7,1.3v0.2
				C478.5,31.4,477.6,31.9,476.4,31.9z"/>
			<path class="st8" d="M481.2,31.9h-0.8c-0.1,0-0.2-0.1-0.2-0.2v-1c0-0.1,0.1-0.2,0.2-0.2h0.8c0.1,0,0.2,0.1,0.2,0.2v1
				C481.4,31.8,481.3,31.9,481.2,31.9z"/>
			<path class="st8" d="M485.9,31.8c-0.2,0.1-0.6,0.1-1.1,0.1c-1.1,0-1.9-0.7-1.9-2.1v-0.8c0-1.4,0.8-2.1,1.9-2.1
				c0.5,0,0.9,0.1,1.1,0.1c0.1,0,0.2,0.1,0.2,0.2v0.6c0,0.1-0.1,0.1-0.2,0.1c0,0,0,0,0,0c-0.3,0-0.5-0.1-1.1-0.1
				c-0.4,0-0.8,0.2-0.8,1.1v0.8c0,0.9,0.4,1.1,0.8,1.1c0.6,0,0.8,0,1.1-0.1c0,0,0,0,0,0c0.1,0,0.2,0,0.2,0.1v0.6
				C486,31.7,486,31.8,485.9,31.8z"/>
			<path class="st8" d="M489.4,31.9c-1.3,0-2-0.9-2-2.1v-0.7c0-1.2,0.7-2.1,2-2.1c1.3,0,2,0.9,2,2.1v0.7
				C491.4,31,490.7,31.9,489.4,31.9z M490.3,29.1c0-0.7-0.3-1.1-0.9-1.1c-0.6,0-0.9,0.5-0.9,1.1v0.7c0,0.7,0.3,1.1,0.9,1.1
				c0.6,0,0.9-0.5,0.9-1.1V29.1z"/>
			<path class="st8" d="M498.8,31.9H498c-0.1,0-0.2-0.1-0.2-0.2v-2.9c0-0.7-0.1-0.8-0.6-0.8c-0.2,0-0.5,0-0.8,0.2c0,0.2,0,0.4,0,0.6
				v2.9c0,0.1-0.1,0.2-0.2,0.2h-0.8c-0.1,0-0.2-0.1-0.2-0.2v-2.9c0-0.7-0.1-0.8-0.6-0.8c-0.2,0-0.4,0.1-0.8,0.3v3.4
				c0,0.1-0.1,0.2-0.2,0.2h-0.8c-0.1,0-0.2-0.1-0.2-0.2v-4.5c0-0.1,0.1-0.2,0.2-0.2h0.7c0.1,0,0.2,0.1,0.2,0.2v0.2
				c0.4-0.2,0.7-0.4,1.2-0.4c0.5,0,0.8,0.1,1,0.4c0.4-0.2,0.8-0.4,1.4-0.4c1.2,0,1.4,0.8,1.4,1.8v2.9
				C499,31.8,498.9,31.9,498.8,31.9z"/>
		</g>
	</g>
	<g>
		<g>
			<path class="st8" d="M442.1,19.7c0.2-0.2,0.3-0.5,0.5-0.7c0.2-0.2,0.3-0.5,0.5-0.7l-0.8,0.4l-0.9-1.8c-0.6,1.2-1.3,2.3-2,3.3
				l-0.7-0.5v2.4h-1.5V9h12.4v11c0,0.4,0,0.7-0.1,1c-0.1,0.3-0.2,0.5-0.3,0.6c-0.2,0.1-0.4,0.3-0.7,0.3c-0.3,0.1-0.7,0.1-1.1,0.1
				h-1.8l-0.3-1.4h1.7c0.2,0,0.4,0,0.6,0c0.2,0,0.3-0.1,0.4-0.2c0.1-0.1,0.1-0.2,0.2-0.3c0-0.1,0-0.3,0-0.5v-9.1h-9.4v8.4
				c0.4-0.5,0.7-1,1-1.6c0.3-0.6,0.7-1.1,1-1.7c-0.3-0.7-0.7-1.3-1-1.9c-0.3-0.6-0.6-1.1-0.8-1.6l1.1-0.5l1.4,2.6
				c0.2-0.5,0.4-1,0.6-1.5c0.2-0.5,0.4-1,0.5-1.5l1.2,0.4c-0.1,0.2-0.1,0.3-0.2,0.5c-0.1,0.2-0.1,0.3-0.2,0.5l0.8-0.4
				c0.2,0.3,0.3,0.6,0.5,0.9c0.2,0.4,0.4,0.7,0.6,1.1c0.2-0.5,0.4-0.9,0.6-1.4c0.2-0.5,0.3-0.9,0.5-1.4l1.2,0.4
				c-0.4,1.3-0.9,2.6-1.5,3.8c0.3,0.6,0.7,1.2,1,1.8c0.3,0.6,0.6,1.1,0.8,1.6l-1.2,0.6c-0.2-0.4-0.4-0.8-0.6-1.2
				c-0.2-0.5-0.5-0.9-0.7-1.4c-0.3,0.6-0.7,1.2-1,1.8c-0.4,0.6-0.8,1.2-1.2,1.8L442.1,19.7z M442.1,15.5c0.2,0.4,0.5,0.9,0.7,1.3
				s0.4,0.8,0.6,1.1c0.5-0.8,0.9-1.6,1.3-2.3c-0.3-0.5-0.5-1-0.8-1.4c-0.2-0.5-0.5-0.8-0.7-1.2c-0.2,0.4-0.4,0.9-0.5,1.3
				C442.5,14.7,442.3,15.1,442.1,15.5z"/>
			<path class="st8" d="M452.8,17.2c0.7-0.4,1.3-0.9,1.9-1.4c0.5-0.5,1-1.1,1.4-1.6h-1.2V8.9H465v5.3h-8.2l0.8,0.4
				c-0.1,0.1-0.2,0.3-0.3,0.4c-0.1,0.1-0.2,0.3-0.3,0.4h8.9c-0.1,0.7-0.1,1.3-0.2,1.9c0,0.2,0,0.5-0.1,0.8c0,0.3,0,0.5-0.1,0.7
				c0,0.2,0,0.4-0.1,0.6c0,0.2,0,0.3,0,0.4c-0.1,0.4-0.1,0.7-0.2,0.9c-0.1,0.2-0.2,0.4-0.4,0.6c-0.2,0.1-0.4,0.3-0.7,0.3
				c-0.3,0.1-0.7,0.1-1.1,0.1h-2.1l-0.3-1.3h1.8c0.3,0,0.6,0,0.8,0c0.2,0,0.4-0.1,0.5-0.2c0.1-0.1,0.2-0.2,0.3-0.3
				c0.1-0.1,0.1-0.3,0.1-0.6l0.3-2.6h-1.7c-0.2,0.6-0.5,1.2-0.7,1.7s-0.6,1-1.1,1.5c-0.4,0.5-0.9,0.9-1.5,1.4s-1.2,0.8-2,1.2
				l-0.9-1.1c0.7-0.4,1.3-0.7,1.8-1.1c0.5-0.3,0.9-0.7,1.3-1.1s0.7-0.8,0.9-1.2c0.3-0.4,0.5-0.9,0.7-1.4h-1.8c-0.3,0.5-0.6,1-1,1.4
				c-0.4,0.4-0.8,0.8-1.3,1.2c-0.5,0.4-1,0.8-1.6,1.1s-1.3,0.7-2.1,1l-0.8-1.2c0.7-0.3,1.3-0.5,1.8-0.8s1-0.6,1.4-0.9
				c0.4-0.3,0.8-0.6,1.1-0.9c0.3-0.3,0.6-0.6,0.8-1h-2c-0.3,0.3-0.6,0.6-1,0.9c-0.3,0.3-0.7,0.5-1.1,0.8L452.8,17.2z M456.3,11h7.2
				V10h-7.2V11z M463.5,13v-0.9h-7.2V13H463.5z"/>
			<path class="st8" d="M469,20.7c0.3-0.5,0.6-1,0.9-1.6c0.3-0.6,0.5-1.2,0.8-1.7l1.2,0.4c-0.1,0.3-0.2,0.6-0.4,0.9
				s-0.3,0.6-0.4,0.9c-0.2,0.3-0.3,0.6-0.5,0.9c-0.2,0.3-0.3,0.6-0.5,0.8L469,20.7z M471,11h-1.4V9.7h2.9L472,8.4l1.3-0.4l0.7,1.7
				h2.6V11h-1.4l0.5,0.2c-0.1,0.3-0.2,0.6-0.4,1s-0.3,0.7-0.5,1.1h2.1v1.3h-3v1.5h2.8v1.3h-2.8v3.4c0,0.3,0,0.5-0.1,0.7
				c-0.1,0.2-0.1,0.3-0.3,0.5c-0.1,0.1-0.3,0.2-0.5,0.2c-0.2,0-0.5,0.1-0.9,0.1h-0.9l-0.3-1.4h0.6c0.2,0,0.4,0,0.5,0
				c0.1,0,0.2-0.1,0.3-0.1c0.1-0.1,0.1-0.1,0.1-0.3s0-0.2,0-0.4v-2.7h-3v-1.3h3v-1.5h-3.2v-1.3h2.1c-0.1-0.3-0.3-0.6-0.4-1
				c-0.2-0.4-0.3-0.7-0.5-0.9L471,11z M473.4,13.2c0.2-0.3,0.3-0.6,0.5-1.1c0.2-0.4,0.3-0.8,0.5-1.1h-2.7c0.2,0.3,0.3,0.6,0.5,1
				c0.2,0.4,0.3,0.7,0.4,1l-0.6,0.2L473.4,13.2L473.4,13.2z M475,17.5c0.1,0.2,0.3,0.3,0.4,0.5c0.1,0.2,0.3,0.4,0.4,0.6
				s0.3,0.4,0.4,0.6c0.1,0.2,0.3,0.4,0.3,0.5l-1,0.7c-0.1-0.2-0.2-0.3-0.3-0.5c-0.1-0.2-0.3-0.4-0.4-0.6s-0.3-0.4-0.4-0.6
				c-0.1-0.2-0.3-0.4-0.4-0.5L475,17.5z M475.5,21.7c0.4-0.5,0.7-1,0.9-1.5c0.2-0.5,0.4-1,0.6-1.5c0.1-0.5,0.2-1.1,0.3-1.8
				c0-0.7,0.1-1.5,0.1-2.4V9.6c0.5,0,0.9-0.1,1.4-0.2c0.5-0.1,0.9-0.1,1.4-0.2c0.5-0.1,0.9-0.2,1.3-0.3c0.4-0.1,0.8-0.2,1.1-0.3
				L483,10c-0.3,0.1-0.6,0.2-0.9,0.3c-0.3,0.1-0.7,0.2-1.1,0.3c-0.4,0.1-0.8,0.2-1.2,0.2s-0.8,0.1-1.1,0.1v2.3h4.7v1.4h-1.6v7.5
				h-1.4v-7.5h-1.7v0.2c0,0.9,0,1.7-0.1,2.4s-0.1,1.3-0.3,1.9c-0.1,0.6-0.3,1.1-0.6,1.6c-0.2,0.5-0.5,1.1-0.9,1.6L475.5,21.7z"/>
			<path class="st8" d="M487.9,11.1v11h-1.4v-11H487.9z M487.5,8.2c0.2,0.1,0.4,0.3,0.6,0.5c0.2,0.2,0.4,0.4,0.7,0.6
				c0.2,0.2,0.5,0.4,0.7,0.6c0.2,0.2,0.4,0.4,0.6,0.5l-1.1,1.1c-0.2-0.2-0.3-0.3-0.5-0.5c-0.2-0.2-0.4-0.4-0.7-0.6s-0.4-0.4-0.7-0.6
				s-0.4-0.4-0.6-0.5L487.5,8.2z M488.3,18.9c0.1,0,0.3,0,0.5,0c0.2,0,0.5,0,0.8,0V13h-1v-1.2h8V13h-1.1v5.6l1.4-0.1v1.2l-1.4,0.1
				v1.6h-1.3v-1.5c-0.6,0-1.2,0.1-1.8,0.1c-0.6,0-1.2,0.1-1.8,0.1c-0.5,0-1,0.1-1.4,0.1c-0.4,0-0.7,0-0.9,0.1L488.3,18.9z M499,9.1
				v11.2c0,0.4,0,0.7-0.1,0.9c-0.1,0.2-0.2,0.4-0.3,0.6c-0.2,0.1-0.4,0.2-0.6,0.3c-0.3,0.1-0.6,0.1-1,0.1H496l-0.2-1.3h0.6
				c0.4,0,0.7-0.1,0.9-0.2c0.1-0.1,0.2-0.4,0.2-0.7v-9.5h-7.2V9.1H499z M491,14.1h3.3V13H491V14.1z M491,16.4h3.3v-1.1H491V16.4z
				 M494.3,18.6v-1.1H491v1.3L494.3,18.6z"/>
		</g>
	</g>
	<g>
		<g>
			<path class="st9" d="M399.3,0.2c-4.3,0-7.1,0-9.7,2.6c-2.6,2.6-2.6,5.4-2.6,9.7v15.3c0,4.3,0,7.1,2.6,9.7
				c2.6,2.6,5.4,2.6,9.7,2.6h15.3c4.3,0,7.1,0,9.7-2.6c2.6-2.6,2.6-5.4,2.6-9.7V12.5c0-4.3,0-7.1-2.6-9.7c-2.6-2.6-5.4-2.6-9.7-2.6
				L399.3,0.2L399.3,0.2z"/>
			<g>
				<g>
					<path class="st7" d="M397,23.3c0-0.2,0.1-0.3,0.1-0.4c0-0.1,0-0.2-0.1-0.4c0-0.1,0-0.2,0-0.2c0-0.1-0.1-0.2-0.1-0.3
						c0-0.2-0.1-0.4-0.3-0.6c-0.1-0.2-0.3-0.2-0.5-0.2c0,0,0,0-0.1,0c-0.2,0-0.3,0-0.3,0.1c0,0.1-0.1,0.1-0.1,0.2
						c0,0-0.1,0.1-0.1,0.3c0,0.2,0.1,0.3,0.1,0.4c0,0.1,0.1,0.3,0.2,0.6c0,0.2,0.2,0.4,0.4,0.6c0.2,0.2,0.4,0.3,0.5,0.2
						C396.8,23.7,396.9,23.5,397,23.3z M404.4,22.2c-0.2-0.1-0.3-0.1-0.5-0.1c-0.1,0-0.2,0-0.3,0c-0.1,0.1-0.2,0.1-0.4,0.1
						c-0.2,0-0.4,0-0.5,0.1c-0.1,0-0.2,0.1-0.3,0.1c-0.2,0-0.4,0.1-0.5,0.3c-0.1,0.2-0.1,0.3-0.1,0.4c0,0.2,0.1,0.3,0.3,0.4
						c0.3,0.1,0.6,0.1,0.8,0c0.1,0,0.2-0.1,0.3-0.1c0.1,0,0.2,0,0.2,0c0,0,0.1,0,0.2,0c0.4,0.1,0.7,0,0.9-0.2
						c0.2-0.1,0.3-0.3,0.3-0.6C404.8,22.5,404.7,22.3,404.4,22.2z M394.7,22.3c-0.1-0.2-0.2-0.3-0.4-0.3c-0.1,0-0.2-0.1-0.3-0.1
						c-0.1,0-0.1,0-0.1,0.1c-0.1,0-0.1,0.1-0.2,0.1c0,0-0.1,0.1-0.2,0.3c0,0.4-0.1,0.7-0.1,0.9c0,0.2,0,0.7,0.1,1.3
						c0,0.2,0.1,0.4,0.2,0.6c0.1,0.2,0.2,0.3,0.4,0.3c0.1,0,0.3-0.1,0.4-0.3c0.1-0.1,0.1-0.2,0.2-0.3c0-0.1,0-0.2,0-0.4
						c0.1-0.3,0.2-0.5,0.1-0.8c-0.1-0.3-0.1-0.6-0.1-0.9C394.8,22.7,394.8,22.5,394.7,22.3z M394.1,21.1c0.2,0,0.3-0.1,0.5-0.1
						c0.4,0,0.8-0.2,1-0.5c0.2-0.2,0.3-0.4,0.6-0.5c0.1-0.1,0.2-0.2,0.3-0.2c0.1,0,0.2-0.1,0.3-0.2c0.1-0.2,0.2-0.4,0.2-0.7
						c0-0.1,0-0.3-0.1-0.4c0-0.1-0.1-0.3-0.1-0.6c0-0.2-0.1-0.4-0.2-0.7c0-0.2-0.1-0.3-0.2-0.3c-0.1-0.1-0.1-0.2-0.2-0.3
						c0-0.1-0.1-0.2-0.3-0.3c-0.1,0-0.1-0.1-0.1-0.1c0,0,0,0,0,0c0-0.2,0-0.3-0.1-0.5c0,0,0,0,0-0.1c0-0.1,0-0.1,0.1-0.2
						c0-0.1,0.1-0.2,0.2-0.3c0.2-0.2,0.4-0.3,0.7-0.4c0.1,0,0.2-0.1,0.3-0.3c0.1-0.1,0.1-0.3,0-0.4c-0.1-0.2-0.1-0.3,0-0.4
						c0-0.1,0-0.2-0.1-0.4c-0.2-0.3-0.5-0.4-0.8-0.5c-0.1,0-0.2,0-0.3-0.1c-0.1,0-0.2,0-0.3,0c-0.1,0-0.2,0.1-0.2,0.1
						c-0.2,0-0.3,0.1-0.3,0.2c-0.1,0.2-0.1,0.3,0,0.4c0.2,0.1,0.3,0.2,0.4,0.3c0,0.1,0,0.2-0.1,0.3c0,0.1-0.1,0.1-0.1,0.3
						c0,0.2-0.1,0.3-0.2,0.4c0,0-0.1,0.1-0.1,0.2c0,0.2-0.1,0.2-0.3,0.3c-0.1,0-0.2,0.1-0.3,0.2c-0.1,0.1-0.2,0.1-0.4,0.1
						c0,0-0.1-0.1-0.3-0.1c-0.1,0-0.2-0.1-0.3-0.2c0,0-0.1-0.1-0.1-0.1c-0.1,0-0.2-0.2-0.3-0.4c-0.1-0.2,0-0.4,0.1-0.7
						c0-0.3,0.1-0.5,0.2-0.5c0.1,0,0.1-0.1,0.2-0.2c0-0.1,0.1-0.3,0.2-0.3c0.1,0,0.1-0.1,0.1-0.3c0-0.1,0.1-0.2,0.2-0.3
						c0.1-0.1,0.1-0.1,0.2-0.1c0.1,0,0.1,0,0.2-0.1c0.1-0.1,0.2-0.1,0.3-0.1c0.1,0,0.2,0,0.3-0.1c0.1,0,0.1-0.1,0.3-0.1
						c0.1,0,0.3-0.1,0.5-0.2c0.1,0,0.1-0.2,0.1-0.4c0-0.2-0.2-0.5-0.4-0.7c-0.2-0.1-0.5-0.2-0.7-0.1c-0.1,0-0.2,0-0.3-0.1
						c-0.1,0-0.1,0-0.2,0c-0.1,0-0.2,0-0.3,0.1c-0.1,0.1-0.2,0.1-0.3,0.1c-0.1,0-0.3,0.2-0.4,0.5c-0.1,0.1-0.1,0.2-0.2,0.3
						c-0.1,0-0.2,0.1-0.2,0.2c0,0.1-0.1,0.2-0.1,0.2c-0.1,0.1-0.1,0.2-0.2,0.3c0,0.1-0.1,0.2-0.1,0.2c-0.1,0.1-0.2,0.3-0.4,0.8
						c-0.2,0.4-0.3,0.6-0.3,0.7c0,0.1,0,0.2-0.1,0.2c-0.1,0-0.1,0.3-0.1,0.6c0,0.1,0.1,0.2,0.1,0.3c0.1,0.1,0.1,0.2,0.1,0.2
						c0,0.1,0,0.2,0.1,0.2c0.1,0,0.1,0.1,0.2,0.1c0.1,0.1,0.2,0.2,0.4,0.3c0.1,0,0.2,0.1,0.2,0.2c0.1,0.1,0.1,0.2,0.1,0.3
						c0.1,0.2,0.1,0.4,0,0.6c-0.2,0.2-0.2,0.4-0.3,0.6c0,0.2-0.1,0.3-0.2,0.4c-0.2,0.1-0.4,0.3-0.5,0.8c-0.1,0.2-0.2,0.4-0.1,0.6
						c0,0.2,0.1,0.3,0,0.5c0,0.2,0.1,0.5,0.4,1c0.3,0.3,0.7,0.4,1,0.4c0.2,0,0.4,0,0.7,0.2C393.7,21.1,393.9,21.2,394.1,21.1z
						 M393,19.4c-0.2-0.2-0.3-0.4-0.3-0.6c0-0.1,0.1-0.3,0.2-0.4c0.1-0.1,0.2-0.3,0.2-0.5c0-0.1,0.1-0.3,0.3-0.4
						c0.2-0.1,0.4-0.3,0.5-0.6c0-0.2,0.2-0.3,0.3-0.3c0.2,0,0.3-0.1,0.4-0.1c0,0,0,0,0,0c0.2,0,0.3,0.1,0.5,0.2c0,0,0.1,0.1,0.1,0.1
						c0,0,0,0.1,0.1,0.1c0.1,0.1,0.1,0.2,0.2,0.3c0,0.1,0.1,0.2,0.1,0.2c0.1,0.1,0.1,0.2,0.2,0.5c0,0.2,0,0.4-0.1,0.6
						c0,0.1-0.1,0.3-0.1,0.5v0c-0.1,0.2-0.3,0.3-0.5,0.4c-0.2,0.1-0.4,0.1-0.5,0.1c-0.1,0-0.2,0-0.4,0c0,0-0.1,0-0.1,0
						c-0.1,0-0.1,0-0.2-0.1c-0.1,0-0.2-0.1-0.4-0.1C393.3,19.6,393.1,19.5,393,19.4z M392.5,21.8c-0.1-0.1-0.2-0.2-0.4-0.2
						c0,0-0.1,0-0.1,0c-0.2,0.1-0.4,0.3-0.4,0.6c-0.1,0.1-0.1,0.3-0.3,0.4c-0.3,0.3-0.4,0.7-0.4,1c0,0.3-0.1,0.5-0.2,0.7
						c-0.1,0.3-0.1,0.5,0,0.8c0,0.2,0.2,0.4,0.4,0.4c0.2,0,0.4,0,0.5-0.1c0.1-0.1,0.2-0.2,0.3-0.5c0.1-0.2,0.1-0.4,0.2-0.6
						c0.1-0.2,0.3-0.3,0.3-0.5c0.1-0.2,0.1-0.4,0-0.6c0-0.2,0-0.5,0-0.7C392.6,22.2,392.6,22,392.5,21.8z M407,23.1
						c0-0.4-0.1-1-0.4-1.7c-0.1-0.3-0.1-0.7-0.1-1.2c0.1-0.3,0-0.7-0.1-1.2c0-0.2,0-0.4,0-0.6c0.1-0.2,0.1-0.4,0-0.6
						c0-0.2-0.1-0.3,0-0.5c0.1-0.2,0.1-0.4,0.1-0.8c0-0.4,0-0.9,0.1-1.3c0-0.2,0-0.3,0-0.4c0-0.1,0-0.2,0-0.4c0,0,0.1-0.1,0.1-0.3
						c0-0.1,0.1-0.2,0.1-0.3c0.1-0.1,0.1-0.2,0.2-0.3c0-0.2,0-0.5,0-0.7c-0.1-0.4-0.3-0.6-0.6-0.8c-0.2-0.1-0.3-0.2-0.4-0.3
						c0-0.1-0.1-0.2-0.3-0.3c-0.1,0-0.3-0.1-0.5-0.1c-0.1,0-0.3,0-0.4-0.1c-0.1-0.1-0.2-0.1-0.3-0.1c-0.1,0-0.2,0-0.4,0
						c-0.3,0-0.6,0-0.9,0c-0.2,0-0.5,0-0.7,0c-0.1,0-0.2,0-0.3,0c-0.2,0-0.3,0-0.5,0.1c-0.1,0.1-0.2,0.1-0.3,0.1
						c-0.1,0-0.3,0-0.6,0.1c-0.1,0-0.3,0-0.5,0c-0.3,0-0.5,0-0.8,0.1c-0.1,0-0.2,0-0.3,0c-0.1,0-0.2,0-0.3,0c0,0,0,0,0,0
						c-0.2-0.2-0.5-0.2-0.7,0c-0.2,0.1-0.4,0.4-0.6,0.9c-0.2,0.4-0.3,0.9-0.2,1.4c0,0.5,0.1,0.9,0.3,1.2c0.2,0.2,0.3,0.5,0.3,0.9
						c0,0.7,0.1,1.1,0,1.3c0,0.3,0,0.5,0,0.8c0,0.2,0,0.4-0.1,0.5c0,0.1,0,0.2,0,0.4c0.1,0.3,0.1,0.5,0,0.8
						c-0.2,0.4-0.3,0.9-0.3,1.4c0,0.1,0,0.3-0.1,0.4c0,0.2-0.1,0.5-0.2,0.8c0,0-0.1,0.1-0.1,0.3c0,0.2-0.1,0.4-0.3,0.6
						c-0.1,0.2-0.2,0.3-0.3,0.4c0,0.1-0.1,0.3-0.1,0.4c0,0.2,0,0.3,0,0.5c0,0.2,0.1,0.3,0.3,0.4c0.2,0.1,0.4,0.1,0.5,0.1
						c0.2,0,0.4-0.1,0.6-0.3c0.1-0.2,0.2-0.3,0.3-0.5c0.1-0.3,0.2-0.6,0.3-1.1c0.1-0.2,0.1-0.3,0.1-0.4c0-0.1,0-0.3,0.1-0.4
						c0-0.1,0.1-0.2,0.1-0.3c0-0.1,0-0.2,0-0.3c0-0.1,0-0.2,0-0.3c0-0.1,0-0.3,0.1-0.5c0-0.2,0.1-0.4,0.1-0.6c0,0,0-0.1,0-0.1
						c0.1,0,0.2,0.1,0.3,0.2c0.1,0,0.2,0,0.3,0c0,0,0.1,0.1,0.1,0.2c0,0,0.1,0.1,0.1,0.2v0.1c0,0.1,0,0.2-0.1,0.4
						c0,0.3,0,0.7,0.1,1.2c0.1,0.4,0.3,0.6,0.6,0.7c0.1,0,0.2,0.1,0.3,0.1c0.1,0,0.2,0,0.3,0c0.2-0.1,0.3-0.2,0.3-0.4
						c0.1-0.2,0-0.3-0.1-0.4c0,0-0.1-0.1-0.1-0.2c0-0.1-0.1-0.2-0.1-0.4v-0.4c0-0.1,0-0.2,0-0.3c0.1-0.3,0.1-0.5,0.1-0.7l0,0
						c0.2-0.1,0.5-0.3,1-0.4h0c0.2,0,0.4,0,0.6,0c0.3,0,0.6,0,0.8,0c0.4,0.1,0.7,0.1,1,0c0.2-0.1,0.4-0.3,0.4-0.5
						c0-0.3-0.1-0.5-0.3-0.6c-0.2-0.1-0.4-0.2-0.6-0.2c-0.2,0-0.4,0-0.6,0c-0.2,0-0.4,0-0.6,0c0,0,0,0,0,0c-0.1-0.1-0.2-0.2-0.3-0.3
						c0,0,0-0.1,0-0.1c0-0.1,0-0.2,0-0.3c0-0.2,0-0.3,0-0.4c0,0,0,0,0-0.1c0,0,0.1-0.1,0.2-0.1c0.1,0,0.1-0.1,0.3-0.1
						c0.1,0,0.3,0,0.4-0.1c0.4-0.1,0.7-0.1,1.1,0.1c0,0,0.1,0,0.1,0c0.1,0,0.2,0.1,0.3,0.3c0.1,0.1,0.2,0.1,0.3,0.3
						c0,0.2,0,0.4,0.1,0.5c0,0.3,0,0.5,0,0.8c-0.1,0.2-0.1,0.4,0,0.7c0,0.3,0,0.5,0,0.6c0,0.1,0,0.3,0,0.4c0.1,0.5,0.1,1.1,0,1.6
						c0,0.2,0,0.5,0.1,0.8c0,0.1,0,0.3,0,0.4c0,0.1,0,0.2,0,0.3c0,0.1,0.1,0.2,0.1,0.4c0,0.2,0.1,0.4,0.2,0.6
						c0.1,0.2,0.3,0.3,0.5,0.3c0.2,0,0.4-0.1,0.6-0.2c0-0.1,0.1-0.1,0.1-0.3c0-0.1,0-0.2,0.1-0.3c0-0.2,0-0.4,0-0.7
						C407,23.8,407,23.5,407,23.1z M401.5,18.8c-0.1,0.1-0.2,0.2-0.4,0.3h0c-0.1,0-0.2,0-0.4,0c-0.1,0-0.3,0-0.4,0
						c-0.1,0-0.3,0-0.5,0.1c-0.2,0-0.4,0.2-0.5,0.3c0-0.2,0-0.4,0.1-0.5c0-0.1,0.1-0.3,0.1-0.6c0-0.1,0.1-0.2,0.1-0.2
						c0.1-0.1,0.1-0.2,0.3-0.3c0,0,0.1,0,0.1-0.1c0.1,0,0.3,0,0.4,0c0.1,0,0.3-0.1,0.5-0.2h0c0.2,0,0.3,0.1,0.5,0.2
						c0,0,0.1,0,0.1,0.1v0.2v0.2c0,0.1,0,0.2,0,0.4C401.5,18.7,401.5,18.8,401.5,18.8z M405.5,15.1c0,0.2-0.1,0.4-0.1,0.7V16
						c0,0.1-0.1,0.1-0.2,0.2c0,0-0.1,0-0.1,0.1c0,0,0,0-0.1,0c-0.2,0-0.4,0-0.6,0c-0.2,0-0.4-0.1-0.6,0c0,0,0-0.1,0-0.1
						c0,0-0.1-0.1-0.1-0.1c0-0.1,0-0.1,0-0.2c0-0.3,0.1-0.5,0.2-0.7c0.1-0.1,0.2-0.3,0.3-0.5c0-0.2,0.1-0.3,0.1-0.5
						c0-0.3,0-0.5-0.1-0.7c-0.1-0.2-0.2-0.3-0.3-0.3c-0.1,0-0.3,0-0.6,0.2c-0.2,0.2-0.3,0.4-0.3,0.7c0,0.1-0.1,0.3-0.2,0.5
						c0,0.1,0,0.2,0,0.4c0,0.2,0.1,0.3,0.1,0.5c0,0.2-0.1,0.3-0.1,0.4c0,0-0.1,0.1-0.1,0.2c0,0-0.1,0.1-0.1,0.1c0,0-0.1,0.1-0.3,0.2
						h0c-0.3,0-0.5,0-0.6,0.1c-0.1,0.1-0.3,0.1-0.5,0.1c-0.2,0-0.3,0-0.5,0c-0.2,0-0.4,0-0.5,0c-0.1,0-0.3,0-0.4,0.1
						c0,0,0,0-0.1-0.1c-0.2-0.1-0.3-0.3-0.6-0.4l0,0v0c-0.1-0.2-0.2-0.5-0.2-0.9c0-0.2,0-0.4-0.1-0.8c0-0.2,0.1-0.4,0.3-0.9
						c0,0,0-0.1,0-0.1c0.2-0.1,0.4-0.3,0.8-0.4c0,0,0,0,0.1,0c0.1,0,0.2,0,0.3,0c0,0,0,0,0,0c0.1,0,0.3,0,0.5-0.1
						c0.5-0.2,1-0.3,1.5-0.2c0.4,0.1,0.7,0.1,0.9,0c0.4-0.2,1,0,1.6,0.6c0.3,0.3,0.4,0.6,0.4,1C405.5,14.5,405.5,14.9,405.5,15.1z
						 M401.7,14.6c0-0.1-0.1-0.2-0.1-0.2c0-0.2-0.1-0.4-0.2-0.5c-0.1-0.1-0.3-0.2-0.4-0.2c0,0-0.1,0-0.1,0c-0.2,0-0.3,0-0.3,0.1
						c0,0.1-0.1,0.1-0.1,0.2c0,0-0.1,0.1-0.1,0.3c0,0.2,0.1,0.3,0.1,0.4c0,0.1,0.1,0.3,0.2,0.6c0,0.2,0.2,0.4,0.4,0.5
						c0.2,0.2,0.3,0.3,0.4,0.2c0.1,0,0.2-0.2,0.3-0.4c0-0.2,0.1-0.3,0.1-0.4c0-0.1,0-0.2-0.1-0.4C401.7,14.7,401.7,14.7,401.7,14.6z
						 M414.9,14.2c0.5-0.1,0.9-0.1,1.1-0.1c0.3,0.1,0.6,0.1,0.9,0c0.3-0.1,0.6-0.1,0.9,0c0.2,0.1,0.4,0.1,0.6,0
						c0.1-0.1,0.2-0.2,0.3-0.5c0-0.2-0.1-0.4-0.3-0.6c-0.2-0.1-0.5-0.1-0.8,0c-0.2,0.1-0.5,0.1-0.9,0c-0.2,0-0.4-0.1-0.6-0.1
						c-0.2,0-0.5,0-0.7,0.1c-0.4,0.1-0.7,0.1-0.9,0c-0.2-0.1-0.4,0-0.6,0.1c-0.1,0.1-0.2,0.3-0.3,0.5c0,0.2,0.1,0.4,0.3,0.5
						C414.3,14.3,414.6,14.3,414.9,14.2z M409.7,19.8c0,0.1,0.1,0.1,0.4,0.2c0.3,0.1,0.6,0.1,0.8,0c0.1,0,0.2,0,0.3,0
						c0.1,0,0.3,0,0.5-0.1c0.2-0.1,0.4-0.2,0.7-0.2c0.3,0,0.6-0.1,0.7-0.2c0.2-0.1,0.4-0.2,0.6-0.3c0.3-0.1,0.5-0.2,0.7-0.4
						c0.1-0.1,0.2-0.2,0.4-0.3c0.1,0,0.2-0.2,0.3-0.3c0.1-0.1,0.2-0.2,0.3-0.3c0.2-0.2,0.4-0.3,0.5-0.5c0.1-0.2,0.2-0.4,0.2-0.6
						c0.2,0,0.3,0,0.5,0c0.2,0.1,0.4,0.1,0.7,0c0.2-0.1,0.4-0.1,0.6,0c0.2,0.1,0.4,0.1,0.7,0c0.2,0,0.5-0.1,0.8,0
						c0.4,0,0.8,0,1.1-0.2c0.4-0.1,0.7-0.3,0.8-0.6c0.2-0.2,0.3-0.6,0.3-1v-1c0-0.3,0-0.5-0.1-0.7c-0.1-0.1-0.1-0.3-0.1-0.5
						c0-0.4-0.1-0.7-0.2-0.9c-0.1-0.1-0.2-0.2-0.2-0.4c0-0.1-0.2-0.3-0.4-0.5c-0.3-0.2-0.5-0.3-0.7-0.3c-0.2,0-0.4,0-0.5-0.1
						c-0.4-0.2-1-0.3-1.6-0.2c-0.4,0-0.8,0-1.1-0.1c-0.2,0-0.5-0.1-0.8-0.1c-0.1,0-0.2,0-0.3,0c-0.4,0-0.7,0.1-1,0.2
						c-0.2,0-0.4,0.1-0.6,0.1c-0.3,0-0.6,0.1-0.8,0.3c-0.2,0.1-0.3,0.3-0.3,0.6c0,0.2,0.2,0.4,0.5,0.5c0.4,0.1,0.8,0,1.2-0.2
						c0.5-0.2,1-0.3,1.6-0.2c0.4,0,0.9,0.1,1.6,0.1c0.9,0,1.4,0.1,1.5,0.3c0.1,0.1,0.2,0.1,0.3,0.2c0.1,0,0.1,0.1,0.2,0.3
						c0,0.1,0.1,0.2,0.2,0.4c0,0.1,0.1,0.3,0.1,0.4c0,0.2,0,0.4,0.1,0.6c0.1,0.2-0.1,1.4-0.3,1.5c-0.2,0.2-0.4,0.3-0.8,0.3
						c-0.4,0-0.7,0-1,0.1c-0.3,0.1-0.7,0.1-1,0c-0.6-0.1-1.3-0.1-1.9,0.1c-0.5,0.1-1,0.2-1.4,0c-0.3-0.1-0.5-0.2-0.6-0.5
						c-0.1-0.2-0.2-0.4-0.3-0.8c0-0.3,0-0.7,0.1-1.2c0-0.5,0-0.8-0.1-1c0-0.2-0.1-0.3-0.2-0.4c-0.1,0-0.2-0.1-0.4-0.1
						c-0.1,0-0.2,0.1-0.3,0.1c-0.1,0.1-0.2,0.2-0.3,0.4c-0.1,0.2-0.2,0.5-0.1,0.8c0,0.1,0,0.3,0,0.4c0,0.2,0,0.4,0,0.6
						c0,0.3,0.1,0.8,0.1,1.3c0,0.3,0,0.6,0.2,0.7c0.2,0.2,0.3,0.3,0.4,0.5c0.1,0.2,0.3,0.3,0.7,0.4c0.4,0.1,0.6,0.1,0.8,0.1
						c0.3-0.1,0.5-0.1,0.8,0c-0.1,0.1-0.1,0.2-0.2,0.3c-0.2,0.2-0.4,0.4-0.6,0.5c-0.2,0-0.3,0.1-0.5,0.2c-0.2,0.1-0.4,0.2-0.6,0.3
						c-0.2,0-0.4,0.1-0.6,0.2c-0.2,0.1-0.4,0.2-0.6,0.2c-0.2,0-0.4,0-0.5,0c-0.2,0-0.4,0-0.6,0c-0.2,0.1-0.4,0.2-0.5,0.3
						c-0.1,0.1-0.2,0.3-0.1,0.5c0,0.1,0,0.2,0.1,0.2C409.7,19.6,409.7,19.7,409.7,19.8z M423.1,20.5c-0.1-0.1-0.1-0.2-0.1-0.4
						c0-0.2-0.1-0.3-0.2-0.5c-0.1-0.2-0.2-0.4-0.3-0.5c0-0.2-0.1-0.3-0.2-0.4c-0.3-0.2-0.5-0.4-0.7-0.6c-0.1-0.1-1-0.6-1.2-0.8
						c-0.1-0.1-0.3-0.1-0.4-0.1c-0.2,0-0.3,0-0.5-0.1c-0.2,0-0.3,0-0.4,0c-0.1,0-0.3,0-0.6-0.1c-0.2,0-0.5-0.1-0.7-0.1
						c0,0,0,0-0.1,0c-0.2,0-0.4,0-0.6,0.1c-0.2,0.1-0.4,0.3-0.4,0.5c0,0.3,0.1,0.4,0.2,0.5l0,0c-0.2,0.2-0.4,0.3-0.7,0.5
						c-0.1,0.1-0.2,0.2-0.3,0.3c-0.1,0.1-0.3,0.2-0.6,0.4c-0.3,0.2-0.6,0.4-0.9,0.5c-0.2,0.1-0.3,0.2-0.5,0.3
						c-0.1,0.1-0.2,0.2-0.4,0.3c-0.2,0.1-0.3,0.2-0.4,0.3c-0.2,0.1-0.5,0.3-1.1,0.5c-0.2,0-0.4,0.1-0.5,0.2c-0.2,0.1-0.5,0.2-1,0.2
						c-0.3,0-0.5,0.1-0.7,0.3c-0.2,0.2-0.3,0.4-0.3,0.5c0,0.3,0.2,0.4,0.4,0.6c0.1,0.1,0.4,0.1,0.7,0.1c0.2,0,0.5-0.1,0.7-0.3
						c0.2-0.1,0.4-0.2,0.5-0.2c0.2,0,0.5-0.1,0.9-0.3c0.3-0.1,0.5-0.2,0.7-0.3c0.2-0.2,0.3-0.3,0.5-0.3c0.2-0.1,0.4-0.2,0.5-0.3
						c0.1-0.1,0.2-0.2,0.4-0.3c0.2-0.1,0.4-0.2,0.5-0.4c0.1-0.1,0.2-0.2,0.3-0.3c0.2-0.1,0.4-0.3,0.6-0.5c0.1-0.1,0.3-0.3,0.4-0.4
						c0.2-0.1,0.4-0.3,0.7-0.5c0.1-0.1,0.2-0.2,0.3-0.3c0.2-0.1,0.3-0.3,0.4-0.5h0c0.1,0,0.3,0,0.5,0c0.1,0,0.3,0,0.6,0
						c0.1,0,0.1,0,0.2,0c0,0,0,0.1,0.1,0.1c0.1,0.2,0.2,0.4,0.2,0.6c0,0.2,0.1,0.3,0.2,0.3c0.1,0,0.2,0,0.3,0c0.1,0,0.2,0,0.4-0.1
						c0.1,0,0.2,0,0.4,0c0,0,0.1,0,0.2,0.1c0.3,0.3,0.5,0.6,0.7,1c0.1,0.2,0.1,0.5,0,1c-0.1,0.5-0.3,0.8-0.5,1
						c-0.1,0.1-0.2,0.2-0.3,0.3c-0.3,0.4-0.5,0.6-0.8,0.7c-0.1,0-0.2,0.1-0.2,0.1c-0.1,0.1-0.5,0.3-1,0.4c-0.4,0.1-0.7,0.1-0.9,0.1
						c-0.1,0-0.2,0-0.2-0.1c-0.1-0.1-0.3-0.2-0.4-0.3c-0.2-0.1-0.4-0.1-0.6,0c-0.1,0.1-0.1,0.2-0.1,0.4c0,0.2,0.1,0.3,0.2,0.5
						c0.1,0.1,0.1,0.2,0.1,0.3c0,0.1,0.1,0.2,0.2,0.3c0.1,0.1,0.2,0.2,0.2,0.4c0.1,0.1,0.2,0.2,0.5,0.2c0.1,0,0.3,0,0.5,0.1
						c0.1,0,0.4,0,0.6-0.1c0.3-0.1,0.5-0.2,0.7-0.2c0.2,0,0.7-0.3,1.4-0.8c0.3-0.2,0.6-0.4,0.8-0.7c0.1-0.2,0.1-0.3,0.2-0.3
						c0.1,0,0.3-0.2,0.6-0.5c0.2-0.3,0.3-0.6,0.3-0.8c0-0.1,0-0.3,0-0.4c0.1-0.4,0.2-0.6,0.1-0.8c0-0.2,0-0.3,0-0.5
						C423.1,20.7,423.1,20.6,423.1,20.5z M416.8,23c0-0.1,0-0.3,0.1-0.4c0.2-0.1,0.5-0.3,0.7-0.5c0.1-0.2,0.3-0.3,0.4-0.4
						c0.2-0.2,0.5-0.4,0.7-0.6c0.1-0.1,0.2-0.3,0.3-0.3c0.3-0.1,0.4-0.3,0.4-0.6c0-0.2-0.1-0.4-0.4-0.5c0,0-0.1,0-0.1,0
						c-0.1,0-0.3,0.1-0.5,0.2c-0.3,0.2-0.6,0.5-0.9,0.7c-0.1,0.1-0.2,0.2-0.3,0.3c-0.1,0.1-0.4,0.2-0.7,0.5c-0.4,0.3-0.7,0.5-1,0.6
						c-0.1,0.1-0.3,0.2-0.6,0.4c-0.1,0.1-0.3,0.2-0.5,0.3c-0.2,0.1-0.3,0.2-0.4,0.3c-0.2,0.1-0.6,0.3-1.2,0.6
						c-0.3,0-0.5,0.1-0.6,0.2c-0.2,0.1-0.6,0.2-1.1,0.3c-0.3,0-0.6,0.1-0.8,0.3c-0.2,0.2-0.3,0.4-0.3,0.6c0.1,0.3,0.2,0.5,0.4,0.6
						c0.2,0.1,0.4,0.1,0.7,0.1c0.3,0,0.5-0.1,0.8-0.3c0.2-0.2,0.4-0.3,0.5-0.2c0.2,0,0.5-0.1,1-0.4c0.4-0.1,0.6-0.3,0.7-0.4
						c0.2-0.2,0.3-0.3,0.5-0.4c0.3-0.1,0.5-0.2,0.6-0.3c0.1-0.1,0.3-0.3,0.4-0.4c0,0,0,0,0,0c0,0,0,0,0.1,0c0.1,0,0.3,0,0.3,0
						c0.1,0,0.2,0,0.3,0C416.7,23.3,416.8,23.2,416.8,23z"/>
				</g>
			</g>
			<polygon class="st10" points="399.6,28.3 400.1,28.3 400.1,31.4 399.7,31.4 397.6,29 397.6,31.4 397.2,31.4 397.2,28.3 
				397.5,28.3 399.6,30.7 			"/>
			<polygon class="st11" points="403.5,28.3 405.3,28.3 405.3,28.7 403.9,28.7 403.9,29.6 405.2,29.6 405.2,30 403.9,30 403.9,31 
				405.3,31 405.3,31.4 403.5,31.4 			"/>
			<polygon class="st10" points="412.1,28.3 412.6,28.3 411.3,31.4 411.2,31.4 410.2,28.9 409.1,31.4 409.1,31.4 407.8,28.3 
				408.2,28.3 409.1,30.4 410,28.3 410.4,28.3 411.3,30.4 			"/>
			<path class="st10" d="M416,30.1l-0.3-0.2c-0.2-0.1-0.4-0.3-0.5-0.4c-0.1-0.1-0.1-0.3-0.1-0.4c0-0.2,0.1-0.4,0.3-0.6
				c0.2-0.2,0.4-0.2,0.7-0.2c0.3,0,0.5,0.1,0.7,0.2V29c-0.2-0.2-0.5-0.3-0.7-0.3c-0.1,0-0.3,0-0.4,0.1c-0.1,0.1-0.1,0.2-0.1,0.3
				c0,0.1,0,0.2,0.1,0.3c0.1,0.1,0.2,0.2,0.3,0.3l0.3,0.2c0.4,0.2,0.6,0.5,0.6,0.9c0,0.2-0.1,0.5-0.3,0.6c-0.2,0.2-0.4,0.2-0.6,0.2
				c-0.3,0-0.6-0.1-0.8-0.3v-0.6c0.2,0.3,0.5,0.5,0.8,0.5c0.1,0,0.3,0,0.3-0.1c0.1-0.1,0.1-0.2,0.1-0.3
				C416.4,30.5,416.3,30.3,416,30.1"/>
		</g>
	</g>
</g>
<path class="st7" d="M242.9,12.3c-1.9-1.1-4.1-1.1-6-0.2c-0.9,0.4-2,0.5-2.9,0.1c-1.1-0.4-2.3-0.7-3.5-0.7s-2.4,0.2-3.5,0.7
	c-0.9,0.4-2,0.4-2.9-0.1c-1.8-0.9-4.1-0.9-6,0.2c-2.1,1.2-3.2,3.3-3.2,5.6c0,1.1,0.3,2.2,0.9,3.2c1,1.7,2.6,2.8,4.4,3.1
	c1.2,0.2,2.2,0.9,2.9,1.8c1.7,2.3,4.4,3.8,7.4,3.8s5.8-1.5,7.4-3.8c0.7-1,1.7-1.6,2.9-1.8c1.8-0.3,3.5-1.4,4.4-3.1
	c0.6-1,0.9-2.1,0.9-3.2C246.2,15.6,245,13.4,242.9,12.3z M225.5,22.8c-0.6,0-1.1-0.5-1.1-1.1c0-0.6,0.5-1.1,1.1-1.1
	c0.6,0,1.1,0.5,1.1,1.1C226.6,22.3,226.2,22.8,225.5,22.8z M232.6,23.3c0,1.1-0.9,2.1-2.1,2.1c-1.1,0-2.1-0.9-2.1-2.1v-3.2
	c0-1.1,0.9-2.1,2.1-2.1c1.1,0,2.1,0.9,2.1,2.1V23.3z M235.6,22.8c-0.6,0-1.1-0.5-1.1-1.1c0-0.6,0.5-1.1,1.1-1.1s1.1,0.5,1.1,1.1
	C236.7,22.3,236.2,22.8,235.6,22.8z"/>
</svg>
